<?xml version="1.0" standalone="no"?>
<!DOCTYPE svg PUBLIC "-//W3C//DTD SVG 20010904//EN"
 "http://www.w3.org/TR/2001/REC-SVG-20010904/DTD/svg10.dtd">
<svg version="1.0" xmlns="http://www.w3.org/2000/svg"
 width="577.000000pt" height="234.000000pt" viewBox="0 0 577.000000 234.000000"
 preserveAspectRatio="xMidYMid meet">

<g transform="translate(0.000000,234.000000) scale(0.100000,-0.100000)"
fill="#000000" stroke="none">
<path d="M0 2320 c0 -11 5 -20 10 -20 6 0 10 9 10 20 0 11 -4 20 -10 20 -5 0
-10 -9 -10 -20z"/>
<path d="M40 2205 c0 -128 1 -135 20 -135 19 0 20 7 20 115 l0 115 115 0 c108
0 115 1 115 20 0 19 -7 20 -135 20 l-135 0 0 -135z"/>
<path d="M320 2310 l0 -30 -110 0 -110 0 0 -110 c0 -81 3 -110 13 -110 6 0
137 -3 291 -7 253 -5 279 -5 288 11 8 15 39 16 346 10 278 -5 339 -9 349 -21
9 -11 16 -12 32 -4 12 7 87 11 189 11 143 0 172 -3 183 -16 17 -21 4 -42 -42
-65 -18 -10 -39 -22 -45 -28 -12 -9 -70 -18 -184 -26 -110 -9 -213 -24 -270
-42 -30 -9 -62 -16 -70 -16 -8 0 -19 -3 -25 -7 -28 -20 -88 -28 -285 -34 -188
-7 -611 15 -798 41 l-43 5 2 85 c2 46 7 87 11 89 5 3 7 2 6 -3 -2 -4 0 -9 5
-10 17 -6 27 -2 27 12 0 10 -10 15 -30 15 l-30 0 2 -142 c0 -79 3 -128 5 -110
5 38 -16 37 253 17 351 -26 461 -30 580 -24 63 4 117 5 119 3 2 -2 -30 -19
-70 -38 -89 -42 -49 -37 80 11 101 37 180 53 249 50 23 -1 42 1 42 5 0 10 139
30 166 24 15 -4 23 -3 20 2 -5 8 60 22 103 22 8 0 -11 -17 -44 -37 -40 -25
-54 -39 -43 -41 9 -2 29 3 45 11 15 8 35 12 43 10 13 -4 13 -3 1 5 -20 14 83
66 114 58 13 -3 25 -1 27 4 5 15 68 0 68 -15 0 -8 6 -15 13 -18 9 -3 7 -8 -5
-18 -9 -8 -18 -25 -20 -38 -2 -19 3 -27 22 -32 14 -4 -9 -6 -50 -3 -41 3 -81
7 -87 9 -21 7 -15 -9 8 -24 17 -10 23 -10 29 -1 6 9 21 9 66 0 124 -24 134
-29 134 -56 0 -21 -3 -24 -25 -18 -16 4 -25 2 -25 -5 0 -6 14 -14 30 -17 17
-4 30 -11 30 -16 0 -13 -67 -2 -160 27 -41 13 -101 27 -134 31 -40 4 -54 9
-45 16 9 6 3 7 -18 3 -17 -3 -34 -2 -37 3 -3 5 -29 8 -58 6 -48 -2 -51 -1 -34
12 11 8 23 14 28 14 4 0 8 7 8 15 0 16 -25 21 -35 6 -14 -24 -101 -61 -158
-67 -34 -4 -66 -10 -72 -14 -20 -13 -96 -31 -107 -24 -6 4 -8 3 -5 -3 8 -13
-14 -23 -48 -23 -13 0 -25 -4 -27 -9 -1 -5 -48 -32 -103 -60 -198 -103 -346
-202 -445 -298 l-65 -63 -52 11 c-78 18 -81 22 -59 64 11 20 52 66 91 103 78
74 304 232 334 235 11 0 18 5 15 9 -3 4 9 14 27 23 44 23 31 28 -24 9 -44 -15
-132 -69 -282 -171 -84 -58 -197 -170 -215 -214 -13 -31 -18 -32 -79 -17 -31
8 -50 -147 -21 -176 4 -4 6 -14 4 -21 -6 -14 41 -55 62 -55 7 0 21 -12 32 -27
15 -22 17 -35 10 -58 -4 -16 -13 -60 -19 -96 -12 -77 5 -164 46 -234 38 -63
123 -140 205 -183 105 -56 328 -121 420 -122 48 0 82 -15 65 -28 -5 -4 -15
-16 -21 -27 -6 -11 -24 -26 -40 -34 -16 -8 -31 -17 -34 -21 -6 -9 -95 -50
-108 -50 -6 0 -52 -28 -103 -62 l-94 -63 260 -3 c143 -1 264 0 270 2 6 2 17
23 25 47 17 52 33 71 53 64 7 -3 20 1 27 10 11 13 8 15 -16 16 l-29 1 28 11
c31 12 36 27 10 27 -17 1 -17 1 0 11 13 7 22 8 29 1 12 -12 48 -4 48 10 0 6
-11 8 -25 6 -14 -3 -28 -1 -31 3 -11 19 -44 8 -58 -18 -14 -25 -15 -26 -16 -7
0 12 6 26 13 32 16 13 77 21 77 10 0 -5 10 -8 23 -6 15 2 21 9 19 21 -2 14 5
17 40 19 24 0 53 0 66 -1 12 -1 22 4 22 10 0 14 231 6 284 -10 17 -5 54 -14
81 -21 28 -6 61 -18 74 -27 23 -15 24 -19 18 -97 -3 -44 -9 -89 -12 -98 -7
-17 7 -18 196 -17 190 0 202 1 181 16 -23 16 -23 16 40 50 34 18 64 33 65 33
2 0 -9 -13 -24 -29 -48 -50 -54 -59 -42 -66 9 -6 25 4 67 42 7 7 12 15 12 18
-3 14 6 12 23 -5 17 -17 17 -18 -12 -31 -17 -8 -31 -17 -31 -21 0 -5 38 -8 85
-8 81 0 85 1 86 23 1 21 1 21 9 -3 4 -14 8 -19 9 -12 1 6 8 12 16 12 8 0 15 3
15 8 0 4 20 30 45 57 25 28 45 53 45 56 0 4 9 9 20 12 22 6 37 -8 18 -16 -7
-3 3 -4 22 -1 27 3 31 2 15 -5 -11 -5 -28 -12 -37 -15 -10 -3 -18 -11 -18 -18
0 -9 3 -8 10 2 8 12 10 12 10 1 0 -7 -17 -32 -37 -55 -33 -36 -35 -41 -18 -44
12 -3 31 10 54 37 20 23 42 41 49 41 7 0 11 4 7 10 -6 10 15 50 26 50 4 0 9
-9 12 -20 3 -11 1 -20 -3 -20 -5 0 -12 -9 -15 -20 -3 -11 -13 -20 -21 -20 -8
0 -14 -5 -14 -10 0 -6 -11 -15 -25 -20 -30 -11 -33 -25 -5 -27 11 -1 20 1 20
5 0 12 56 42 77 42 14 0 12 -4 -9 -18 -31 -18 -36 -32 -13 -32 8 0 15 5 15 10
0 6 21 10 46 10 29 0 43 4 39 10 -10 17 14 38 36 33 14 -4 17 -9 10 -16 -22
-22 -9 -27 79 -27 53 0 90 -4 90 -10 0 -6 48 -10 124 -10 l124 0 7 58 7 58 53
11 c29 7 62 9 73 6 12 -3 22 1 25 11 4 9 13 16 22 16 33 0 142 64 192 112 l52
51 31 -49 c25 -40 28 -51 17 -59 -10 -7 -12 -28 -9 -78 4 -60 2 -71 -17 -88
-11 -11 -21 -27 -21 -35 0 -12 21 -15 135 -13 125 1 135 2 141 21 3 12 1 24
-6 28 -8 5 -6 9 7 14 17 7 17 8 -1 22 -19 14 -19 14 2 14 11 0 27 -8 34 -18 7
-9 27 -22 43 -27 17 -6 34 -20 40 -33 9 -20 16 -22 92 -22 47 0 83 4 83 10 0
11 -53 40 -73 40 -8 0 -27 6 -42 14 -23 12 -24 15 -8 19 16 4 16 5 1 6 -10 0
-18 5 -18 10 0 5 8 8 17 7 22 -1 31 32 32 127 1 43 4 77 9 75 4 -1 30 -12 57
-22 28 -11 54 -26 58 -33 4 -7 23 -13 42 -13 34 0 55 -15 33 -23 -7 -2 -10 -8
-5 -12 4 -5 18 -3 31 4 20 11 28 10 48 -3 14 -9 27 -14 30 -11 3 3 54 -5 114
-18 60 -14 141 -28 179 -31 122 -11 153 -18 130 -27 -17 -7 -16 -8 8 -8 19 -1
40 -15 72 -49 25 -26 45 -50 45 -54 0 -12 420 -10 420 2 0 6 45 10 115 10
l115 0 0 110 0 110 30 0 30 0 0 380 0 380 -30 0 -30 0 0 150 0 150 30 0 30 0
0 380 0 380 -30 0 -30 0 0 110 0 110 -115 0 -115 0 0 30 0 30 -1215 0 -1215 0
0 -30 0 -30 -150 0 -150 0 0 30 0 30 -1215 0 -1215 0 0 -30z m3396 -15 l-27
-25 28 -1 c15 0 87 0 158 1 101 1 132 5 138 16 11 19 51 18 68 -2 11 -13 25
-15 75 -9 39 4 77 2 103 -6 32 -9 44 -10 53 -1 7 7 44 12 90 12 45 0 78 4 78
10 0 6 16 10 35 10 19 0 35 -4 35 -10 0 -13 262 -12 355 1 81 12 101 12 210 2
78 -8 80 -9 83 -35 l3 -28 139 0 c87 0 141 -4 145 -11 8 -11 -536 -9 -545 3
-3 3 -65 9 -137 12 -121 5 -133 4 -142 -13 -5 -9 -15 -76 -21 -147 -16 -170
-23 -207 -39 -212 -9 -3 -11 0 -6 8 5 8 1 18 -10 27 -18 12 -17 13 6 13 23 1
23 1 5 15 -16 12 -22 12 -28 2 -6 -9 -11 -8 -19 6 -5 9 -20 26 -31 37 l-22 20
23 0 c13 0 20 4 15 11 -3 6 -16 8 -27 5 -25 -6 -48 10 -40 30 3 10 -2 14 -19
14 -14 0 -33 9 -43 20 -10 11 -23 20 -29 20 -7 0 -36 16 -66 35 -30 19 -62 35
-72 35 -10 0 -27 9 -38 20 -20 20 -46 28 -36 12 3 -5 -20 0 -51 10 -180 61
-436 38 -603 -54 -30 -17 -63 -37 -72 -46 -18 -15 -19 -14 -22 27 0 11 -4 22
-7 25 -3 3 -92 -12 -198 -34 -326 -68 -475 -84 -792 -84 l-276 -1 -23 -182
c-13 -101 -27 -183 -31 -183 -13 0 -63 21 -69 28 -3 4 -18 18 -34 30 -26 20
-27 22 -7 22 11 0 21 5 21 11 0 7 -10 9 -26 5 -14 -4 -23 -3 -20 2 2 4 1 14
-4 22 -13 21 8 41 36 34 15 -4 24 -2 24 5 0 6 -9 11 -20 11 -12 0 -20 7 -20
16 0 14 3 14 15 4 12 -10 19 -10 27 -2 8 8 4 14 -15 21 -34 13 -35 23 -2 15
15 -4 25 -2 25 5 0 6 -8 11 -18 11 -9 0 -50 22 -90 49 l-72 49 34 21 c23 15
52 21 92 22 33 1 50 3 39 6 -11 2 -103 20 -205 39 -186 35 -261 57 -244 74 5
5 51 -2 109 -16 279 -68 494 -94 767 -94 296 0 479 20 783 85 218 47 205 43
205 76 0 35 7 39 78 46 31 3 63 10 69 15 7 6 27 8 45 5 23 -4 47 1 78 16 25
13 47 21 49 20 2 -2 -8 -14 -23 -28z m164 -100 c0 -8 7 -15 16 -15 10 0 14 6
10 15 -4 10 1 15 15 15 11 0 22 -7 25 -15 7 -17 34 -21 34 -5 0 13 37 13 45
-1 4 -6 13 -8 21 -5 34 13 297 -105 311 -140 3 -8 11 -14 19 -14 17 0 83 -59
67 -60 -24 0 -13 -20 11 -20 26 0 68 -51 47 -58 -17 -6 -3 -22 19 -22 20 0 36
-33 25 -51 -4 -6 -18 -8 -31 -5 -13 4 -24 2 -24 -2 0 -16 -102 -54 -114 -42
-19 19 -33 10 -33 -20 0 -16 4 -30 9 -30 4 0 8 -4 8 -10 0 -5 -7 -10 -15 -10
-8 0 -15 -6 -15 -12 0 -7 -14 -14 -33 -15 -45 -3 -81 -13 -73 -20 3 -3 1 -12
-6 -20 -8 -10 -8 -17 -1 -24 15 -15 50 -2 56 21 4 14 14 20 35 20 16 0 35 7
42 15 7 8 18 15 24 15 6 0 3 -7 -6 -14 -10 -7 -15 -16 -11 -19 3 -4 1 -7 -5
-7 -7 0 -54 -28 -105 -63 -50 -35 -110 -72 -132 -82 -22 -11 -57 -32 -79 -47
-21 -15 -42 -25 -47 -22 -5 3 -9 1 -9 -3 0 -5 -20 -22 -44 -37 -25 -16 -57
-41 -73 -57 -15 -16 -31 -29 -36 -29 -4 0 -22 -14 -40 -31 -17 -17 -56 -43
-85 -56 -60 -29 -69 -26 -97 38 l-19 41 32 62 c18 35 41 89 52 121 l20 58 -21
59 c-12 32 -26 58 -30 58 -5 0 -9 9 -9 20 0 12 -9 22 -24 26 -34 8 -66 -4 -66
-26 0 -13 -5 -17 -20 -13 -11 3 -20 0 -20 -6 0 -6 7 -11 15 -11 8 0 15 -4 15
-9 0 -10 -2 -9 -87 9 l-53 12 1 66 c0 37 4 120 8 185 l8 118 42 43 c55 56 154
104 260 126 110 24 171 25 171 5z m880 5 c13 -8 13 -11 1 -19 -17 -11 -63 1
-69 17 -5 15 46 16 68 2z m603 -50 c71 -4 131 -10 133 -13 4 -4 -38 -448 -95
-1002 l-6 -60 -100 0 c-55 0 -154 2 -220 4 -70 2 -134 -1 -155 -8 -58 -18
-290 -80 -365 -97 -106 -25 -129 -28 -122 -17 6 9 45 22 87 27 8 2 31 8 50 14
19 6 46 13 60 16 71 13 135 29 225 54 l100 29 8 63 c10 77 6 87 -30 93 -27 4
-27 4 4 6 37 1 35 -4 53 181 6 63 18 174 26 245 9 72 18 153 20 180 12 167 27
281 37 287 16 10 132 9 290 -2z m-3518 -100 c3 -5 -3 -10 -14 -10 -12 0 -21 5
-21 10 0 6 6 10 14 10 8 0 18 -4 21 -10z m2901 -66 c2 -19 -3 -24 -21 -24 -17
0 -22 5 -20 18 2 9 4 22 4 29 2 22 36 2 37 -23z m-2118 -57 c4 -19 18 -23 24
-6 2 5 20 14 40 18 28 7 38 5 42 -5 3 -8 1 -14 -4 -14 -6 0 -10 -6 -10 -13 0
-14 -90 -124 -90 -110 0 4 -4 2 -8 -4 -6 -10 -16 -7 -38 10 -59 43 -144 120
-140 125 11 11 75 20 126 18 42 -2 56 -6 58 -19z m229 -3 c5 -13 7 -13 14 -2
7 10 9 11 9 0 0 -7 5 -10 10 -7 6 3 10 1 10 -4 0 -6 -8 -11 -18 -11 -10 0 -23
-5 -30 -12 -6 -6 -15 -8 -19 -3 -5 4 -2 10 5 12 6 3 12 9 12 15 0 6 -7 8 -14
5 -10 -4 -13 -1 -9 9 7 19 22 18 30 -2z m-1056 -11 c13 -15 11 -16 -11 -10
-14 4 -33 7 -42 7 -10 0 -18 5 -18 10 0 17 57 11 71 -7z m557 5 c3 10 7 10 18
1 8 -6 11 -15 8 -20 -3 -5 3 -9 13 -9 10 0 29 -10 43 -23 14 -13 51 -42 83
-65 31 -24 57 -46 57 -51 0 -4 -35 -41 -78 -82 -83 -79 -103 -96 -197 -174
-33 -28 -76 -65 -95 -82 -33 -31 -69 -46 -55 -23 3 6 0 10 -8 10 -10 0 -13 8
-10 24 3 14 10 23 17 20 7 -3 23 7 36 21 13 14 28 25 33 25 18 0 77 50 77 65
0 8 -16 25 -36 39 -24 16 -31 26 -22 30 7 3 3 3 -10 0 -13 -3 -29 0 -37 6 -17
14 -20 66 -5 75 8 5 8 11 0 19 -10 12 0 129 11 141 6 5 74 18 102 19 20 0 23
12 5 19 -9 4 -10 6 -1 6 6 1 18 -6 26 -14 13 -13 16 -13 27 1 11 12 10 13 -2
9 -8 -3 -21 2 -29 12 -13 17 -13 17 5 3 15 -12 20 -12 24 -2z m2367 2 c3 -5
-3 -10 -15 -10 -12 0 -18 5 -15 10 3 6 10 10 15 10 5 0 12 -4 15 -10z m-3302
-37 c-7 -2 -21 -2 -30 0 -10 3 -4 5 12 5 17 0 24 -2 18 -5z m-80 -10 c-7 -2
-19 -2 -25 0 -7 3 -2 5 12 5 14 0 19 -2 13 -5z m1481 -124 c-8 -9 -15 -30 -14
-46 1 -15 2 -31 1 -35 -1 -9 -151 81 -151 90 0 4 25 32 57 64 l56 57 34 -56
c31 -52 32 -57 17 -74z m1903 125 c-3 -3 -12 -4 -19 -1 -8 3 -5 6 6 6 11 1 17
-2 13 -5z m-1477 -40 c0 -2 -15 -4 -32 -3 -27 0 -29 2 -13 8 18 8 45 4 45 -5z
m-1333 -20 c-3 -3 -12 -4 -19 -1 -8 3 -5 6 6 6 11 1 17 -2 13 -5z m1283 -4 c0
-5 -2 -10 -4 -10 -3 0 -8 5 -11 10 -3 6 -1 10 4 10 6 0 11 -4 11 -10z m1290
-58 c0 -4 -11 -14 -23 -23 -21 -15 -22 -15 -23 7 -1 14 5 24 15 27 18 4 31 -1
31 -11z m-2637 1 c-7 -2 -19 -2 -25 0 -7 3 -2 5 12 5 14 0 19 -2 13 -5z m1387
-23 c0 -5 -5 -10 -11 -10 -5 0 -7 5 -4 10 3 6 8 10 11 10 2 0 4 -4 4 -10z
m1304 -15 c-4 -8 -15 -15 -25 -15 -21 0 -26 16 -6 23 24 10 36 7 31 -8z
m-1824 -41 c44 -25 83 -51 87 -57 4 -7 6 -41 5 -76 -3 -60 -1 -66 25 -89 15
-13 22 -21 16 -17 -7 3 -13 2 -13 -3 0 -9 32 -22 56 -22 6 0 10 10 10 23 -1
20 3 22 59 22 56 0 60 -1 57 -22 -3 -21 1 -23 39 -23 l41 0 -7 -77 c-7 -89
-14 -133 -21 -144 -2 -4 -23 -7 -47 -5 -23 2 -86 4 -140 4 l-98 2 7 61 c8 74
4 78 -81 71 -75 -6 -223 15 -246 34 -8 8 -33 14 -55 15 -78 3 -106 9 -100 25
4 11 0 11 -20 -2 -13 -9 -27 -14 -31 -10 -3 3 -1 6 5 6 7 0 11 4 10 8 -4 10
27 40 137 134 50 42 115 101 145 132 30 31 61 56 68 56 7 0 49 -21 92 -46z
m1940 42 c0 -2 -7 -6 -15 -10 -8 -3 -15 -1 -15 4 0 6 7 10 15 10 8 0 15 -2 15
-4z m85 -6 c-3 -5 -11 -10 -16 -10 -6 0 -99 -44 -207 -99 -189 -94 -256 -123
-295 -126 -10 -1 -25 -11 -33 -23 -11 -15 -26 -22 -50 -22 -22 0 -34 -5 -34
-14 0 -16 -21 -26 -56 -26 -14 0 -23 -5 -22 -12 2 -9 -11 -14 -37 -15 -22 0
-29 1 -16 4 13 3 26 13 28 24 6 20 13 23 52 19 17 -1 22 2 18 13 -8 22 13 37
44 30 28 -5 42 11 18 19 -6 2 6 13 26 23 29 15 39 17 42 7 4 -9 8 -10 18 -2 9
8 15 8 20 0 9 -15 25 -2 25 21 0 20 29 26 46 9 6 -6 28 0 61 17 40 21 50 30
41 40 -8 10 -5 13 13 14 13 1 27 1 32 0 4 -1 53 21 110 47 150 70 151 71 165
71 7 1 10 -3 7 -9z m-3331 -17 c3 -4 39 -8 79 -9 119 -4 315 -52 302 -74 -3
-4 18 -13 45 -20 49 -12 77 -30 46 -30 -9 0 -16 -4 -16 -10 0 -5 7 -10 15 -10
26 0 19 -48 -7 -53 -23 -4 -23 -5 2 -13 l25 -8 -30 -7 -30 -6 30 -13 30 -13
-30 -7 c-16 -4 -24 -8 -17 -9 25 -2 11 -18 -27 -29 -66 -20 -65 -22 -57 84 4
56 3 93 -3 90 -5 -3 -9 -24 -9 -46 -1 -39 -11 -82 -34 -143 -15 -39 -74 -66
-124 -58 -29 5 -38 11 -36 24 2 13 -4 17 -27 17 -16 0 -33 5 -36 10 -3 6 -1
10 5 10 6 0 8 5 5 10 -4 6 -16 10 -28 9 -42 -4 -66 1 -80 16 -9 8 -36 16 -62
17 -26 1 -40 5 -34 9 7 4 14 20 15 36 2 15 8 55 15 87 10 46 10 61 1 64 -7 2
-9 9 -6 15 5 8 3 9 -4 2 -14 -13 -52 -186 -44 -200 3 -5 -1 -5 -9 2 -20 16
-139 31 -232 29 -44 -1 -76 2 -74 7 1 5 20 19 42 31 21 11 45 27 53 34 7 6 22
12 32 12 10 0 20 6 23 14 3 8 19 17 36 21 16 3 35 13 42 21 6 8 20 14 30 14
11 0 19 4 19 8 0 14 74 45 78 33 6 -19 20 -12 15 8 -4 14 1 21 19 24 39 7 44
7 52 0z m3540 -71 c-15 -26 -42 -63 -59 -82 -114 -125 -205 -232 -205 -240 0
-10 14 -14 40 -10 8 1 11 -2 7 -6 -4 -4 -23 -7 -42 -6 -30 2 -39 -3 -72 -45
-37 -47 -56 -69 -138 -162 -64 -73 -165 -168 -267 -250 -37 -30 -65 -58 -62
-62 3 -5 -2 -9 -11 -9 -16 0 -89 -43 -99 -58 -3 -5 9 -13 27 -17 22 -5 26 -9
15 -12 -10 -2 -18 -9 -18 -14 0 -5 -9 -9 -21 -9 -11 0 -18 4 -15 8 2 4 1 14
-3 21 -7 10 -11 10 -22 -1 -8 -8 -29 -20 -46 -27 -18 -7 -33 -18 -33 -23 0 -6
14 -8 33 -4 17 3 39 1 47 -4 15 -10 6 -11 -105 -16 -66 -2 -164 -42 -198 -80
-23 -27 -32 -32 -43 -23 -18 15 -18 29 0 29 8 0 18 5 22 11 4 7 -3 10 -17 9
-13 -1 -29 -2 -36 -1 -17 1 -73 63 -73 80 0 8 -8 20 -17 27 -16 12 -15 13 13
14 18 0 57 -16 96 -40 42 -25 73 -38 85 -34 10 3 51 20 91 37 75 32 95 53 40
43 -18 -3 -40 -1 -48 4 -13 8 -12 11 5 24 18 14 18 15 3 16 -22 0 -24 20 -3
20 8 0 15 5 15 10 0 6 -7 10 -15 10 -8 0 -15 5 -15 10 0 11 30 13 54 4 8 -3
12 -12 9 -21 -4 -11 0 -14 18 -12 13 1 43 -3 66 -10 33 -9 47 -9 62 1 13 8 17
16 11 23 -6 7 -2 11 11 12 21 2 78 42 78 56 1 5 -9 8 -21 7 -41 -4 -50 0 -44
15 3 8 1 15 -5 15 -10 0 -140 -35 -246 -66 l-53 -15 0 -55 0 -55 -37 7 c-31 6
-113 47 -113 57 0 1 14 3 32 4 17 1 36 8 42 14 8 8 -5 10 -52 6 -62 -5 -85 4
-63 26 16 16 14 25 -6 30 -14 4 -12 5 5 6 12 0 22 5 22 10 0 11 69 36 76 28 5
-5 11 -30 13 -51 1 -5 4 -6 9 -2 7 8 8 13 11 41 2 22 19 18 44 -8 20 -21 27
-22 66 -14 31 6 40 11 31 17 -9 6 3 10 35 12 28 2 49 8 47 13 -2 6 -16 9 -32
9 -23 -2 -30 2 -30 17 0 12 -10 21 -32 27 -30 7 -52 32 -29 32 6 0 11 -4 11
-10 0 -5 11 -10 24 -10 36 0 55 -10 49 -26 -3 -9 2 -14 17 -14 12 0 28 -6 36
-14 10 -11 23 -12 46 -6 18 4 50 11 71 15 39 6 42 25 4 25 -21 1 -21 1 -3 15
15 12 16 15 5 20 -8 3 -24 5 -34 4 -11 -1 -39 -1 -63 -1 -38 2 -43 4 -37 22 5
16 2 20 -19 20 -30 0 -63 39 -43 52 6 4 20 5 29 2 25 -8 42 4 28 21 -8 9 -6
14 7 17 21 5 235 0 240 -6 3 -2 9 -36 15 -74 10 -72 20 -83 58 -75 12 3 14 18
12 69 -4 64 -3 66 20 62 18 -2 24 -10 26 -35 3 -25 8 -33 24 -33 11 0 22 8 25
20 3 11 12 20 20 20 18 0 99 83 197 200 83 100 131 153 248 275 48 49 106 117
130 150 50 71 67 54 22 -23z m-3692 47 c-13 -5 -30 -16 -38 -24 -9 -8 -22 -15
-30 -15 -9 0 -22 -7 -30 -15 -9 -8 -24 -15 -33 -15 -10 0 -24 -7 -31 -15 -7
-8 -20 -15 -30 -15 -9 0 -25 -9 -35 -20 -10 -11 -24 -20 -30 -20 -7 0 -31 -17
-53 -39 -21 -21 -44 -40 -50 -42 -6 -2 -26 -74 -45 -159 l-33 -155 45 -12 c25
-7 54 -9 65 -6 10 3 22 0 26 -7 5 -8 13 -9 21 -4 19 12 111 15 104 3 -4 -5 0
-9 8 -9 7 0 14 7 14 15 0 11 -11 15 -37 15 -21 0 -42 6 -48 13 -17 20 57 21
80 1 10 -10 35 -20 56 -23 20 -4 37 -11 37 -16 1 -9 22 -54 31 -64 3 -3 11 4
19 15 8 10 15 14 15 8 0 -14 -56 -64 -64 -57 -3 4 -6 1 -6 -5 0 -7 -9 -12 -20
-12 -11 0 -20 4 -20 10 0 5 -12 9 -27 8 -39 -2 -143 22 -143 33 0 5 -12 9 -26
9 -32 0 -134 29 -151 42 -7 6 -11 13 -9 17 3 4 7 30 11 59 l6 52 -25 -11 c-18
-9 -26 -22 -31 -55 -7 -49 -9 -50 -62 -30 -21 8 -63 20 -93 26 -82 18 -91 27
-34 33 27 3 56 6 64 6 34 1 106 18 125 30 17 10 13 11 -25 5 -58 -9 -85 -12
-194 -20 -85 -7 -88 -6 -78 12 44 81 319 274 520 366 81 37 259 97 287 97 18
0 18 -1 -3 -10z m715 5 c-3 -3 -12 -4 -19 -1 -8 3 -5 6 6 6 11 1 17 -2 13 -5z
m2526 -1 c-7 -2 -21 -2 -30 0 -10 3 -4 5 12 5 17 0 24 -2 18 -5z m-2518 -32
c-8 -13 -35 -15 -35 -2 0 5 8 11 18 13 21 5 26 2 17 -11z m78 8 c22 -10 23
-14 16 -67 -14 -122 -9 -115 -110 -148 -14 -5 -17 3 -17 48 0 43 5 57 25 76
14 12 26 35 27 50 4 51 17 60 59 41z m2393 -24 c-3 -9 -12 -12 -21 -9 -14 6
-14 8 2 24 19 18 29 10 19 -15z m-63 0 c-3 -9 -8 -14 -10 -11 -3 3 -2 9 2 15
9 16 15 13 8 -4z m-921 -45 c23 -11 26 -17 21 -44 -4 -17 -13 -37 -20 -44 -11
-12 -17 -10 -36 14 -31 39 -46 66 -47 86 0 18 25 14 82 -12z m-1292 5 c0 -8
-4 -15 -10 -15 -5 0 -10 7 -10 15 0 8 5 15 10 15 6 0 10 -7 10 -15z m2210 5
c0 -5 -4 -10 -10 -10 -5 0 -10 5 -10 10 0 6 5 10 10 10 6 0 10 -4 10 -10z
m-73 -16 c-3 -3 -12 -4 -19 -1 -8 3 -5 6 6 6 11 1 17 -2 13 -5z m-2087 -10 c0
-11 -29 -34 -54 -44 -17 -6 -26 -6 -26 0 0 6 6 10 13 10 7 0 18 9 25 20 11 18
42 28 42 14z m1397 -41 c-3 -10 -5 -4 -5 12 0 17 2 24 5 18 2 -7 2 -21 0 -30z
m-232 -33 c3 -5 1 -10 -4 -10 -6 0 -11 5 -11 10 0 6 2 10 4 10 3 0 8 -4 11
-10z m141 -27 c-11 -11 -19 6 -11 24 8 17 8 17 12 0 3 -10 2 -21 -1 -24z m854
13 c0 -3 -4 -8 -10 -11 -5 -3 -10 -1 -10 4 0 6 5 11 10 11 6 0 10 -2 10 -4z
m245 -14 c-3 -3 -11 0 -18 7 -9 10 -8 11 6 5 10 -3 15 -9 12 -12z m-3399 -26
c12 0 27 -7 33 -14 10 -10 5 -11 -26 -6 -21 3 -50 1 -65 -5 -30 -11 -101 -3
-92 10 3 5 -11 9 -30 9 -21 0 -36 5 -36 12 0 8 26 9 98 3 53 -4 107 -8 118 -9z
m2152 -41 l-12 -40 -4 33 c-4 41 5 69 18 56 6 -6 5 -24 -2 -49z m904 13 c-23
-23 -36 -21 -26 5 5 15 33 28 43 20 3 -2 -5 -13 -17 -25z m154 -30 c-4 -68 -4
-68 -16 -68 -5 0 -8 6 -6 13 16 51 16 67 -1 68 -17 1 -17 2 0 6 9 2 17 11 17
19 0 8 2 14 4 14 3 0 3 -24 2 -52z m-2400 2 c-19 -118 -27 -140 -64 -168 -21
-15 -48 -37 -62 -49 -14 -13 -30 -23 -37 -23 -7 0 -12 -3 -11 -7 2 -5 -8 -29
-21 -55 -16 -34 -29 -48 -44 -49 -17 -1 -18 -2 -4 -6 21 -5 23 -23 2 -23 -18
0 -20 -20 -2 -20 7 -1 5 -6 -6 -14 -14 -11 -15 -15 -5 -19 10 -4 10 -7 1 -14
-10 -7 -9 -22 3 -68 9 -33 20 -65 25 -72 7 -7 5 -13 -3 -16 -7 -3 -2 -6 12 -7
25 -1 25 -1 5 -18 -36 -30 -59 -92 -60 -157 l0 -60 -50 -7 c-27 -4 -99 -10
-158 -12 -59 -2 -111 -6 -114 -10 -12 -12 -33 -6 -33 10 0 11 -6 14 -20 9 -13
-4 -35 5 -67 27 -36 24 -43 33 -30 36 9 2 15 7 12 12 -3 5 -12 7 -20 3 -19 -7
-45 14 -39 32 3 7 -3 15 -13 18 -14 4 -14 5 5 6 21 1 33 21 12 21 -5 0 -10 5
-10 10 0 6 18 10 41 10 28 0 39 4 37 12 -5 15 26 42 60 52 12 4 20 11 17 16
-8 13 25 28 46 23 21 -6 26 12 7 20 -9 4 -8 6 2 6 9 1 23 10 33 21 9 11 26 20
37 20 14 0 19 4 14 12 -4 6 1 17 11 25 16 11 16 13 3 13 -14 0 -14 4 -5 25 9
18 27 29 67 41 71 21 154 71 210 128 25 25 54 46 65 47 17 1 17 2 3 6 -22 6
-24 23 -2 23 11 0 14 6 9 20 -4 12 -2 20 5 20 6 0 9 3 7 8 -3 4 3 38 13 77 16
65 20 70 56 86 61 27 68 25 60 -21z m1504 10 c0 -10 8 -21 18 -23 14 -4 13 -5
-4 -6 -24 -1 -59 33 -50 48 10 15 36 1 36 -19z m40 10 c0 -5 -7 -7 -15 -4 -8
4 -15 8 -15 10 0 2 7 4 15 4 8 0 15 -4 15 -10z m-2230 -15 c0 -10 10 -14 35
-13 19 1 38 -2 42 -5 3 -4 -12 -7 -34 -7 -27 0 -46 6 -58 20 -16 18 -16 20 -2
20 10 0 17 -7 17 -15z m3167 9 c-3 -3 -12 -4 -19 -1 -8 3 -5 6 6 6 11 1 17 -2
13 -5z m102 -3 c9 -6 5 -8 -13 -8 -14 0 -26 3 -26 8 0 11 21 11 39 0z m-1183
-42 c-9 -22 -15 -27 -15 -16 -1 21 18 61 25 54 3 -3 -2 -20 -10 -38z m754 16
c0 -27 -29 -59 -72 -77 -15 -7 -28 -18 -28 -24 0 -14 -23 -24 -52 -24 -12 0
-18 -5 -15 -13 2 -6 -6 -20 -19 -30 -16 -12 -23 -14 -22 -5 2 7 -7 14 -19 16
-16 2 -23 -2 -23 -12 0 -9 8 -16 18 -17 13 0 14 -2 2 -6 -8 -3 -23 -14 -34
-25 -20 -19 -40 -23 -90 -19 -16 2 -32 -2 -35 -8 -4 -5 -24 -7 -48 -4 -24 3
-40 10 -37 14 8 13 100 59 118 59 7 0 16 7 20 15 7 19 2 19 -35 -1 -17 -8 -33
-13 -35 -11 -11 11 67 37 91 31 19 -5 31 -1 46 15 11 11 30 21 43 21 15 0 26
7 29 20 4 15 14 20 36 20 20 0 31 5 31 14 0 17 34 31 51 21 6 -4 13 2 16 13 4
17 34 39 56 41 4 1 7 -10 7 -24z m178 -30 c-5 -41 -3 -45 16 -46 20 -2 20 -2
-1 -6 -13 -2 -24 -12 -24 -21 -1 -15 -2 -15 -6 1 -2 9 -14 18 -26 18 -17 1
-18 2 -4 6 19 5 24 33 5 33 -26 0 -37 -16 -33 -48 3 -23 -2 -37 -17 -52 -32
-29 -38 -25 -38 27 0 63 27 94 76 86 22 -4 34 -2 34 6 0 6 -8 11 -17 11 -14 1
-12 4 7 15 14 8 27 14 29 15 2 0 1 -20 -1 -45z m-3269 8 c-28 -36 -39 -64 -39
-102 0 -39 -20 -67 -28 -42 -4 11 -6 11 -13 0 -6 -10 -9 -11 -9 -1 0 6 -8 12
-18 12 -27 0 -42 20 -42 57 0 26 4 33 19 33 14 0 19 6 16 20 -3 17 1 19 40 17
29 -2 46 2 49 10 3 7 13 13 22 13 15 0 15 -2 3 -17z m66 -15 c-12 -40 -40 -91
-50 -92 -17 -2 -17 64 0 90 21 32 59 33 50 2z m2785 13 c0 -10 -25 -21 -48
-21 -12 1 -10 5 8 15 29 17 40 18 40 6z m-2101 -7 c27 -6 30 -10 25 -33 -13
-58 -15 -62 -34 -56 -10 3 -21 1 -25 -5 -3 -6 3 -10 14 -10 12 0 21 -4 21 -10
0 -5 -10 -10 -21 -10 -17 0 -19 -3 -10 -14 9 -11 8 -15 -4 -20 -9 -3 -14 -10
-10 -16 9 -14 -81 -100 -104 -100 -11 0 -23 -5 -26 -10 -7 -12 -49 -34 -82
-44 -31 -10 -30 8 3 51 43 56 56 99 44 141 -14 52 -13 55 21 75 42 24 49 22
43 -12 -10 -48 13 -44 26 5 10 35 20 48 44 59 38 17 37 16 75 9z m1641 -4 c0
-5 -4 -10 -10 -10 -5 0 -10 5 -10 10 0 6 5 10 10 10 6 0 10 -4 10 -10z m-2196
-18 c2 -4 -11 -6 -30 -4 -19 2 -34 6 -34 8 0 8 59 4 64 -4z m239 -30 c-9 -2
-19 2 -24 10 -16 24 -9 29 15 11 19 -14 21 -19 9 -21z m1983 15 c12 -12 -7
-29 -20 -18 -7 6 -16 8 -19 4 -11 -11 -8 -21 8 -25 12 -2 8 -12 -17 -41 -32
-37 -52 -45 -62 -28 -3 4 8 33 24 63 24 44 34 53 55 53 13 -1 28 -4 31 -8z
m364 3 c0 -5 -4 -10 -10 -10 -5 0 -10 5 -10 10 0 6 5 10 10 10 6 0 10 -4 10
-10z m-2690 -41 c0 -4 -7 -6 -15 -3 -8 4 -15 10 -15 15 0 4 7 6 15 3 8 -4 15
-10 15 -15z m1520 6 c0 -8 -7 -15 -15 -15 -16 0 -20 12 -8 23 11 12 23 8 23
-8z m1514 0 c-6 -16 -24 -21 -24 -7 0 11 11 22 21 22 5 0 6 -7 3 -15z m-1715
1 c-12 -10 -59 -15 -59 -6 0 5 14 10 32 10 17 0 29 -2 27 -4z m237 -5 c-4 -5
0 -12 6 -14 8 -3 6 -6 -4 -6 -10 -1 -18 6 -18 14 0 8 5 15 11 15 5 0 8 -4 5
-9z m436 -83 c-17 -17 -20 -8 -14 37 l5 40 10 -33 c7 -23 7 -36 -1 -44z m1008
47 c0 -14 5 -25 10 -25 20 0 9 -16 -21 -29 -16 -7 -43 -11 -58 -8 -16 3 -33 1
-39 -5 -5 -5 -15 -7 -22 -3 -19 12 9 36 35 29 13 -3 26 -1 29 5 4 6 1 11 -6
11 -18 1 39 50 58 50 8 0 14 -10 14 -25z m-2966 -3 c20 -5 20 -5 0 -13 -14 -6
-11 -8 16 -8 25 -1 31 -4 21 -10 -12 -8 -9 -11 12 -16 45 -12 30 -20 -28 -17
-45 3 -59 8 -71 27 -18 27 -8 59 15 49 9 -3 25 -9 35 -12z m2336 3 c0 -8 -7
-15 -15 -15 -8 0 -15 -4 -15 -10 0 -5 11 -10 25 -10 14 0 25 -6 25 -12 0 -14
-73 -19 -85 -6 -9 9 36 68 52 68 7 0 13 -7 13 -15z m-2240 -6 c0 -13 -29 -43
-36 -36 -3 2 2 11 10 20 8 8 12 17 9 21 -4 3 -1 6 5 6 7 0 12 -5 12 -11z
m-1162 -8 c25 -13 18 -91 -8 -91 -29 0 -42 25 -34 64 7 38 14 42 42 27z m1442
-16 c5 -14 8 -30 6 -37 -3 -7 -7 -26 -11 -41 -5 -25 -9 -28 -30 -23 -14 4 -25
2 -25 -3 0 -5 10 -12 23 -14 l22 -4 -23 -8 c-12 -4 -22 -12 -21 -19 4 -36 -14
-54 -59 -59 -26 -3 -52 -1 -57 3 -6 5 -19 2 -29 -6 -26 -18 -37 -18 -30 1 4 9
0 15 -9 15 -8 0 -17 -6 -20 -13 -5 -13 -97 -11 -97 3 0 17 42 59 63 62 12 2
22 9 22 16 0 20 27 32 46 21 11 -6 20 -5 24 1 3 5 -1 10 -9 10 -9 0 -16 5 -16
10 0 6 5 10 10 10 6 0 20 9 32 20 12 11 29 20 39 20 9 0 19 7 23 15 3 8 17 15
31 15 16 0 25 6 25 15 0 10 10 15 30 15 23 0 33 -6 40 -25z m-1294 -5 c47 0
58 -16 28 -41 -8 -7 -24 -30 -35 -51 -21 -41 -38 -47 -63 -22 -28 27 -18 131
11 120 8 -3 35 -6 59 -6z m2989 -1 c10 -15 -1 -23 -20 -15 -9 3 -13 10 -10 16
8 13 22 13 30 -1z m-1304 -71 c-6 -17 -11 -44 -11 -59 0 -15 -5 -31 -10 -34
-6 -4 -8 -15 -5 -24 3 -10 -1 -31 -9 -46 -8 -16 -12 -33 -8 -39 11 -19 1 -70
-16 -83 -9 -7 -26 -13 -39 -13 -15 0 -23 -6 -23 -17 0 -28 -23 1 -36 46 -12
41 -9 54 16 64 12 4 11 6 -2 6 -10 1 -18 8 -18 16 0 8 8 15 18 15 14 0 15 2 2
10 -13 8 -13 11 -1 19 7 5 10 14 7 20 -4 6 -2 11 4 11 6 0 10 6 8 13 -5 25 36
89 81 127 42 36 46 38 49 19 2 -11 -1 -34 -7 -51z m-1458 21 c38 -11 67 -22
65 -24 -14 -15 -124 -65 -142 -65 -12 0 -26 -4 -31 -9 -6 -5 -31 -12 -57 -16
-62 -9 -63 5 -6 87 48 67 40 66 171 27z m3747 -27 c0 -19 -5 -23 -22 -20 -18
2 -22 8 -19 28 7 50 41 43 41 -8z m-3100 28 c22 -7 21 -8 -12 -9 -20 -1 -40 4
-43 9 -7 12 19 12 55 0z m2990 -15 c0 -9 -7 -18 -16 -22 -18 -7 -39 11 -30 26
11 17 46 13 46 -4z m-2880 -24 c-12 -24 -30 -28 -30 -6 0 13 31 38 38 30 2 -2
-1 -13 -8 -24z m1380 -36 c0 -61 -2 -65 -25 -71 -39 -10 -54 9 -48 64 4 48 22
72 55 72 16 0 18 -9 18 -65z m-416 45 c51 -19 17 -70 -47 -70 -36 0 -39 2 -33
23 3 12 6 30 6 40 0 19 33 23 74 7z m-2077 -41 c18 -36 -3 -51 -27 -19 -10 14
-21 33 -23 42 -7 26 35 7 50 -23z m503 27 l45 -13 -4 -104 c-2 -57 -6 -109
-10 -116 -8 -16 -71 14 -71 33 0 8 -10 13 -22 12 -23 -1 -57 13 -176 70 l-64
30 64 21 c35 12 86 34 113 50 59 34 66 35 125 17z m2918 -20 c-16 -13 -28 -30
-28 -39 0 -9 -5 -19 -12 -23 -8 -5 -9 -2 -5 9 9 24 -14 21 -54 -6 -61 -40
-110 -67 -125 -67 -16 0 -19 16 -4 25 6 3 11 18 11 33 1 17 3 21 6 10 6 -22
26 -23 43 -3 7 8 17 15 22 15 5 0 24 11 41 24 35 25 80 44 112 45 18 1 17 -2
-7 -23z m196 -1 c0 -5 -17 -19 -37 -30 -35 -19 -36 -19 -56 -1 -30 27 -26 34
17 39 54 6 77 3 76 -8z m-2933 -36 c38 -12 69 -25 69 -30 0 -6 10 -8 23 -7 31
4 147 -23 147 -34 0 -5 13 -7 31 -3 29 7 30 6 17 -14 -8 -14 -19 -19 -33 -15
-20 5 -20 5 -1 -10 19 -15 18 -16 -5 -25 -13 -5 -18 -10 -11 -10 17 -1 15 -21
-3 -21 -8 0 -15 -4 -15 -10 0 -5 7 -10 15 -10 8 0 15 -4 15 -10 0 -5 -8 -10
-17 -10 -15 0 -14 -2 3 -15 19 -14 18 -14 -3 -15 -13 0 -23 -5 -23 -11 0 -6 8
-9 18 -7 15 4 21 -5 32 -55 13 -58 13 -61 -10 -79 -27 -22 -40 -23 -40 -3 0 9
-6 12 -15 9 -18 -7 -47 14 -39 27 3 5 -4 9 -15 9 -10 0 -27 3 -35 6 -14 5 -14
9 -4 22 11 13 10 15 -11 9 -19 -5 -43 5 -97 39 -78 48 -85 58 -90 119 -4 41
14 175 23 175 3 0 36 -9 74 -21z m-601 -4 c0 -8 -4 -15 -9 -15 -5 0 -11 7 -15
15 -3 9 0 15 9 15 8 0 15 -7 15 -15z m2004 -38 c15 -25 -24 -57 -70 -57 -33 0
-34 1 -34 41 l0 40 46 -3 c32 -2 50 -9 58 -21z m-1786 -58 c70 -34 129 -65
130 -70 2 -5 11 -9 21 -9 34 0 99 -54 140 -116 22 -34 41 -66 41 -71 0 -4 12
-19 25 -32 14 -13 25 -32 25 -42 0 -10 4 -19 10 -19 5 0 14 -9 20 -20 10 -18
5 -23 -44 -45 -30 -14 -57 -25 -60 -25 -3 0 -27 19 -54 43 -26 24 -69 58 -95
76 -25 19 -44 38 -41 42 3 5 -4 9 -15 9 -11 0 -26 8 -33 19 -7 10 -21 20 -31
22 -38 8 -181 148 -225 221 -13 22 -14 31 -4 52 18 39 48 33 190 -35z m3152
51 c0 -5 -7 -10 -16 -10 -8 0 -12 5 -9 10 3 6 10 10 16 10 5 0 9 -4 9 -10z
m160 0 c0 -5 -2 -10 -4 -10 -3 0 -8 5 -11 10 -3 6 -1 10 4 10 6 0 11 -4 11
-10z m1105 -31 c17 0 24 -3 17 -6 -26 -10 -1 -20 36 -13 52 9 78 -2 85 -37 3
-15 4 -30 2 -31 -9 -9 -45 11 -45 25 0 11 -7 14 -27 10 -29 -5 -121 23 -156
49 -22 16 -21 16 18 10 22 -3 54 -6 70 -7z m-3508 -12 c56 -2 100 0 97 4 -3 5
2 9 11 9 13 0 14 -4 5 -20 -6 -11 -20 -20 -32 -20 -16 0 -19 -3 -11 -11 16
-16 -24 -59 -54 -59 -15 0 -22 -4 -18 -11 7 -11 -43 -59 -61 -59 -7 0 -14 -7
-18 -15 -3 -9 -18 -15 -38 -15 -21 0 -28 -3 -20 -9 10 -6 7 -12 -13 -25 -14
-9 -30 -14 -35 -11 -23 14 14 227 43 246 5 4 17 5 26 3 9 -2 62 -5 118 -7z
m1660 1 c38 -14 42 -32 12 -48 -28 -16 -80 -3 -77 18 3 17 19 41 27 42 3 0 20
-5 38 -12z m1548 -18 c13 0 25 4 27 10 2 5 26 -1 55 -15 57 -26 64 -40 60
-112 -2 -40 -4 -43 -32 -43 -54 0 -105 12 -98 23 4 7 -7 8 -30 4 -21 -3 -39
-1 -43 5 -3 5 -18 8 -32 5 -36 -7 -51 1 -44 25 4 17 1 19 -24 16 -25 -3 -29 1
-32 26 -2 16 1 33 7 39 8 8 11 8 11 -1 0 -7 12 -12 26 -12 19 0 25 4 20 15 -7
20 21 32 37 16 8 -8 7 -11 -3 -11 -12 -1 -11 -4 3 -14 16 -12 16 -14 2 -20
-20 -7 -10 -26 14 -26 13 0 18 8 19 30 0 17 -4 30 -10 30 -6 0 -3 9 7 20 16
18 20 19 27 5 5 -8 20 -15 33 -15z m-1918 14 c-3 -3 -12 -4 -19 -1 -8 3 -5 6
6 6 11 1 17 -2 13 -5z m169 -11 c-2 -9 -8 -19 -14 -21 -14 -4 -15 0 -6 22 8
21 23 20 20 -1z m-169 -9 c-3 -3 -12 -4 -19 -1 -8 3 -5 6 6 6 11 1 17 -2 13
-5z m227 -9 c-4 -8 -10 -15 -15 -15 -5 0 -9 7 -9 15 0 8 7 15 15 15 9 0 12 -6
9 -15z m367 -52 c-43 -29 -161 -146 -161 -159 0 -7 -5 -14 -11 -16 -5 -2 -11
-10 -13 -18 -2 -8 -8 -28 -15 -45 -24 -58 -40 -136 -42 -203 -2 -67 -13 -107
-28 -98 -13 8 -20 110 -11 152 5 21 7 40 5 43 -3 2 -26 -4 -52 -14 -56 -21
-108 -69 -99 -90 3 -8 1 -15 -5 -15 -17 0 -21 27 -8 51 18 34 46 55 116 86 58
25 62 29 73 72 14 55 47 115 87 156 60 61 117 110 147 127 27 14 31 14 34 1 2
-8 -6 -21 -17 -30z m1576 37 c16 -6 30 -17 30 -25 0 -21 -12 -19 -44 10 -31
27 -29 30 14 15z m-1227 -10 c0 -13 -48 -36 -56 -27 -4 4 -1 13 6 22 14 17 50
20 50 5z m722 -15 c6 -30 3 -34 -23 -28 -23 6 -25 23 -3 23 10 0 14 6 10 15
-3 8 -2 15 3 15 5 0 11 -11 13 -25z m-3899 -169 c126 -86 176 -122 232 -170
68 -58 78 -70 65 -74 -21 -8 -9 -22 14 -16 13 3 27 1 30 -5 5 -7 -6 -11 -31
-11 -28 0 -34 -3 -23 -10 8 -5 31 -10 50 -10 33 0 66 -16 98 -47 7 -7 19 -13
26 -13 7 0 21 -9 31 -20 18 -19 17 -20 -2 -20 -42 0 -114 13 -105 19 6 3 -12
7 -39 8 -50 1 -163 31 -234 62 -22 10 -49 21 -60 25 -16 6 -17 9 -5 17 12 9
11 10 -4 5 -47 -16 -179 117 -217 217 -24 61 -32 178 -15 206 4 6 33 -17 72
-59 36 -38 89 -85 117 -104z m2532 154 c3 -6 -5 -10 -19 -10 -35 0 -56 -10
-56 -26 0 -8 -4 -14 -10 -14 -20 0 -10 41 13 50 30 12 65 12 72 0z m1827 -17
c35 -38 52 -73 41 -84 -6 -6 -28 -7 -51 -3 -41 6 -42 8 -42 44 0 41 8 70 19
70 4 0 19 -12 33 -27z m145 16 c6 -6 9 -28 6 -50 -5 -32 -3 -39 11 -39 19 0
21 11 4 28 -9 9 -8 12 5 12 20 0 23 16 5 23 -7 3 2 6 21 6 32 1 33 0 27 -31
-9 -47 -23 -58 -73 -58 l-45 0 4 36 c3 27 0 39 -13 47 -16 10 -16 12 4 23 29
16 31 16 44 3z m-1963 -57 l-21 -17 21 -17 21 -18 -25 -20 c-14 -11 -31 -20
-38 -20 -7 0 -11 -4 -8 -9 3 -5 -1 -11 -9 -14 -9 -4 -12 -1 -8 9 3 8 -1 14 -9
14 -8 0 -23 9 -32 19 -17 19 -16 20 26 42 23 13 52 29 63 35 30 18 43 15 19
-4z m1021 -10 c18 -10 18 -11 3 -12 -10 0 -18 -6 -18 -12 0 -7 -5 -5 -11 5 -6
11 -22 17 -45 17 -19 0 -33 3 -31 8 8 11 80 8 102 -6z m279 3 c17 -13 17 -15
3 -21 -27 -10 -8 -26 22 -19 19 4 32 1 41 -10 8 -10 9 -15 1 -15 -6 0 -11 -5
-11 -11 0 -8 12 -10 35 -6 25 4 46 -1 78 -18 24 -12 58 -26 75 -30 18 -3 32
-12 32 -18 0 -20 208 -21 265 -2 25 9 56 14 68 12 l22 -4 -22 -8 c-13 -4 -23
-12 -23 -17 0 -5 -16 -16 -35 -24 -39 -16 -230 -20 -239 -5 -4 5 -25 9 -49 9
-79 -1 -150 13 -167 34 -14 18 -19 19 -39 7 -19 -11 -25 -11 -28 -1 -3 6 -17
12 -32 12 -49 0 -65 21 -62 81 1 29 4 56 7 61 8 12 37 9 58 -7z m126 -25 c0
-5 -2 -10 -4 -10 -3 0 -8 5 -11 10 -3 6 -1 10 4 10 6 0 11 -4 11 -10z m686
-17 c-10 -10 -19 5 -10 18 6 11 8 11 12 0 2 -7 1 -15 -2 -18z m-4256 -9 c0 -2
-7 -4 -15 -4 -8 0 -15 4 -15 10 0 5 7 7 15 4 8 -4 15 -8 15 -10z m3675 1 c11
-2 28 -4 39 -4 12 -1 16 -6 12 -16 -4 -10 1 -15 14 -15 11 0 20 4 20 9 0 5 28
2 63 -6 34 -7 79 -16 100 -20 39 -6 48 -17 21 -27 -28 -11 -134 -6 -167 7 -18
8 -50 17 -72 22 -22 4 -34 10 -27 12 24 9 12 25 -15 20 -35 -7 -53 1 -46 19 3
10 12 13 22 8 9 -3 25 -8 36 -9z m-2638 -11 c-3 -3 -12 -4 -19 -1 -8 3 -5 6 6
6 11 1 17 -2 13 -5z m-981 -20 c19 -9 34 -20 34 -25 0 -5 6 -9 14 -9 8 0 22
-8 32 -17 10 -10 26 -22 37 -28 24 -12 27 -25 7 -35 -8 -4 -29 -15 -47 -24
-39 -20 -49 -20 -33 -1 10 13 9 15 -8 15 -12 0 -30 13 -42 30 -18 25 -19 30
-6 30 9 0 16 5 16 10 0 6 -9 10 -21 10 -12 0 -23 8 -26 20 -3 11 -10 20 -17
20 -6 0 -4 5 4 10 19 12 16 13 56 -6z m946 -16 c-7 -7 -12 -8 -12 -2 0 14 12
26 19 19 2 -3 -1 -11 -7 -17z m1578 -24 c0 -12 -73 -46 -88 -42 -4 1 -39 -8
-78 -20 -60 -18 -124 -26 -124 -15 0 2 14 29 32 60 34 60 49 59 24 -1 -8 -20
-13 -36 -10 -36 3 0 39 10 80 22 63 18 74 24 74 43 0 12 3 24 6 27 8 9 84 -26
84 -38z m1413 39 c-7 -2 -21 -2 -30 0 -10 3 -4 5 12 5 17 0 24 -2 18 -5z m122
-13 c-3 -5 -17 -10 -31 -10 -13 0 -24 5 -24 10 0 6 14 10 31 10 17 0 28 -4 24
-10z m145 -16 c0 -25 -2 -26 -37 -19 -21 4 -40 9 -42 11 -10 10 25 34 50 34
25 0 29 -4 29 -26z m-3197 0 c10 -3 14 -14 11 -29 -6 -34 -46 -92 -67 -98 -17
-5 -18 -1 -12 36 8 47 31 97 44 97 5 0 16 -3 24 -6z m2243 -39 c18 -15 18 -15
-10 -13 -16 2 -31 9 -34 16 -5 17 20 15 44 -3z m911 -6 c35 -6 63 -13 63 -16
0 -2 -6 -10 -13 -18 -9 -8 -14 -42 -15 -91 -2 -43 -5 -80 -7 -83 -3 -2 -50 11
-105 29 -61 20 -96 37 -88 41 9 6 8 10 -6 15 -10 4 -21 2 -25 -4 -4 -7 -24 -6
-64 5 -58 17 -75 33 -34 33 65 0 217 64 217 92 0 10 1 10 77 -3z m-2111 -24
c-21 -16 -32 -13 -21 4 3 6 14 11 23 11 15 -1 15 -2 -2 -15z m1111 -1 c-3 -3
-12 -4 -19 -1 -8 3 -5 6 6 6 11 1 17 -2 13 -5z m-2847 -19 c6 -8 9 -18 6 -23
-3 -5 8 -12 24 -16 17 -3 30 -12 30 -20 0 -8 10 -16 22 -18 12 -2 23 -9 26
-17 3 -10 -3 -12 -26 -6 -18 3 -33 2 -37 -4 -3 -6 -19 -11 -34 -11 -21 0 -31
8 -44 35 -28 59 -2 122 33 80z m-120 -36 c0 -11 4 -19 9 -19 5 0 8 -17 7 -37
-2 -38 -3 -38 -44 -37 -22 0 -39 -3 -36 -8 3 -4 -4 -8 -15 -8 -20 0 -37 32
-27 49 4 5 -3 12 -14 16 -29 9 -25 25 8 25 18 0 23 3 14 9 -11 7 -10 10 3 15
9 3 28 6 41 6 13 0 23 3 23 8 -3 19 2 23 16 12 8 -7 15 -21 15 -31z m2414 25
c8 -3 12 -12 9 -20 -3 -8 1 -14 10 -14 17 0 157 -165 157 -185 0 -35 -124
-145 -163 -145 -11 0 -25 -6 -31 -13 -13 -17 -165 -62 -174 -52 -8 7 -5 175 2
183 11 10 38 -9 54 -38 11 -20 25 -30 40 -30 21 0 23 3 16 33 -8 33 -9 63 -6
130 2 33 5 37 28 37 20 0 24 3 16 13 -5 6 -12 22 -16 33 -5 17 -2 23 15 27 14
4 20 11 16 20 -9 23 2 31 27 21z m-409 -14 c-3 -5 -13 -10 -21 -10 -8 0 -12 5
-9 10 3 6 13 10 21 10 8 0 12 -4 9 -10z m1060 -84 c-5 -57 -4 -86 4 -90 7 -4
11 1 11 13 0 25 19 28 22 4 1 -10 4 20 7 67 l6 85 57 0 c60 0 83 -10 83 -35 0
-8 9 -15 20 -16 40 -2 45 -4 45 -19 0 -8 9 -15 19 -15 30 0 51 -11 51 -25 0
-8 16 -19 35 -25 19 -6 34 -16 32 -21 -1 -6 16 -16 37 -24 21 -7 42 -17 45
-22 3 -4 22 -19 41 -32 19 -14 39 -30 43 -38 4 -7 14 -13 20 -13 7 0 40 -22
73 -48 33 -27 69 -54 80 -60 17 -10 14 -11 -17 -12 -46 0 -265 38 -287 50 -9
5 -35 12 -57 16 -22 3 -34 9 -27 11 19 7 14 23 -8 23 -11 0 -20 -5 -20 -10 0
-7 -6 -7 -17 -2 -10 5 -35 12 -56 16 -27 5 -37 11 -33 21 6 16 -16 26 -34 15
-18 -11 -124 34 -130 57 -4 13 -14 18 -35 17 -28 -2 -247 99 -285 130 -8 7
-24 17 -35 21 -17 7 -15 9 15 17 50 14 143 25 228 26 l74 2 -7 -84z m309 58
c9 -3 16 -13 16 -21 0 -12 7 -14 32 -9 24 5 49 -3 115 -34 46 -23 87 -48 90
-56 3 -7 10 -14 17 -14 19 0 121 -77 121 -92 0 -7 9 -14 20 -16 11 -2 29 -12
40 -21 11 -10 36 -27 55 -39 19 -11 48 -34 64 -51 24 -25 26 -31 14 -36 -33
-13 -83 -1 -93 23 -5 12 -17 22 -26 22 -21 0 -199 140 -199 157 0 8 -5 11 -10
8 -11 -7 -87 38 -130 75 -13 11 -26 20 -30 20 -4 0 -17 9 -30 20 -13 11 -28
20 -34 20 -15 1 -74 50 -59 50 6 0 18 -3 27 -6z m-2574 -18 c0 -22 -13 -26
-33 -11 -14 10 -15 14 -5 18 24 10 38 7 38 -7z m2780 -12 c30 -8 64 -17 75
-19 72 -17 172 -50 181 -62 6 -7 23 -13 37 -13 14 0 46 -9 71 -20 l46 -19 0
-86 c0 -47 -3 -85 -7 -85 -15 0 -113 82 -113 95 0 8 -8 15 -18 15 -10 0 -27 8
-38 19 -11 10 -31 24 -45 31 -13 7 -49 32 -79 54 -30 22 -84 55 -120 72 -73
36 -71 41 10 18z m-2838 -21 c14 -16 26 -37 28 -48 3 -35 1 -119 -5 -162 -7
-49 -22 -54 -93 -29 -23 8 -77 20 -122 27 -44 7 -80 15 -80 18 0 8 -200 6
-220 -2 -33 -12 -86 -16 -100 -7 -13 8 -12 10 3 10 9 0 17 5 17 11 0 6 -10 9
-22 7 -15 -2 -22 -9 -20 -19 3 -22 -20 -30 -36 -13 -9 10 -8 15 6 23 11 7 13
10 3 11 -11 0 -11 3 -1 15 7 8 13 37 13 65 1 52 13 66 49 54 10 -3 25 -1 31 5
19 15 101 16 190 2 78 -12 191 -4 249 18 17 6 29 6 37 -2 6 -6 14 -7 18 -2 5
4 2 10 -5 12 -10 4 -8 9 5 19 24 18 26 18 55 -13z m1536 -52 c-5 -68 -8 -74
-32 -65 -11 4 -16 19 -16 50 l0 44 -135 -2 c-122 -1 -157 3 -144 17 3 2 66 6
140 8 75 2 144 9 155 15 29 16 37 0 32 -67z m-2433 43 c29 -31 24 -45 -13 -43
-15 0 -38 -3 -51 -7 -16 -5 -22 -4 -17 4 3 6 -3 12 -16 14 -33 5 -31 21 5 40
45 23 64 22 92 -8z m725 6 c-14 -4 -56 -8 -95 -7 l-70 0 60 7 c33 4 76 7 95 7
31 1 32 0 10 -7z m2130 0 c0 -5 -5 -10 -11 -10 -5 0 -7 5 -4 10 3 6 8 10 11
10 2 0 4 -4 4 -10z m-5 -41 c-10 -15 -25 -10 -19 6 4 8 10 12 15 9 5 -3 7 -10
4 -15z m125 11 c12 -7 17 -16 13 -27 -5 -13 -2 -15 20 -9 18 4 38 -1 64 -16
21 -12 61 -32 88 -46 28 -13 53 -28 56 -33 3 -5 -1 -40 -8 -77 -8 -37 -13 -86
-11 -110 2 -23 -1 -42 -6 -42 -14 0 -46 31 -46 45 0 7 -11 15 -25 17 -21 4
-23 2 -15 -13 16 -29 12 -32 -47 -25 -41 5 -54 4 -43 -3 8 -6 10 -11 5 -11 -6
0 -16 5 -22 11 -6 6 -16 8 -23 4 -8 -5 -6 -11 7 -21 17 -14 16 -14 -6 -12 -19
2 -27 13 -37 48 -8 28 -10 46 -4 48 16 6 12 22 -5 22 -8 0 -15 5 -15 10 0 6 7
10 16 10 8 0 12 5 8 11 -3 6 -15 9 -25 6 -26 -7 -69 51 -48 64 11 7 11 9 -3 9
-16 0 -58 44 -58 62 0 14 31 22 39 10 4 -7 12 -8 21 -2 9 6 10 10 3 10 -16 0
43 57 65 63 9 3 18 5 20 6 2 0 12 -4 22 -9z m-2743 -58 c-6 -51 -43 -126 -57
-117 -5 3 -5 19 0 35 5 16 6 38 3 48 -2 11 0 23 6 26 6 4 11 16 11 26 0 17 12
27 34 29 5 1 6 -21 3 -47z m-67 1 c-24 -117 -28 -123 -57 -98 -10 8 -27 21
-38 29 -18 14 -18 15 -2 16 9 0 17 4 17 9 0 5 -8 11 -17 14 -15 3 -14 6 7 15
18 8 20 11 8 11 -50 2 9 39 63 40 25 1 26 -1 19 -36z m-144 -8 c2 -26 -18 -33
-44 -17 -19 12 -3 42 22 42 15 0 21 -7 22 -25z m1372 -70 c1 -1 0 -10 -4 -19
-3 -9 -17 -16 -32 -16 -24 0 -25 1 -7 13 12 10 14 16 7 21 -7 4 -12 2 -12 -3
0 -6 -7 -11 -16 -11 -13 0 -14 3 -4 15 10 12 52 12 68 0z m146 -1 c11 -2 26
-10 34 -18 12 -12 11 -16 -7 -25 -11 -7 -21 -9 -21 -6 0 3 -9 -4 -20 -15 -31
-31 -109 -8 -79 23 8 8 21 24 29 36 9 13 21 19 30 15 8 -3 24 -7 34 -10z m307
-27 c-6 -8 -8 -17 -4 -20 3 -4 -2 -7 -13 -8 -18 0 -18 -1 1 -9 18 -7 18 -8 -8
-15 -15 -4 -33 -16 -41 -26 -7 -10 -28 -22 -47 -26 -31 -6 -33 -5 -20 10 7 9
10 17 6 17 -4 0 4 9 18 20 14 11 29 29 32 40 6 19 23 27 64 29 18 1 21 -2 12
-12z m89 -3 c0 -8 -5 -12 -10 -9 -6 4 -8 11 -5 16 9 14 15 11 15 -7z m82 -6
c-7 -7 -12 -8 -12 -2 0 14 12 26 19 19 2 -3 -1 -11 -7 -17z m-1937 -18 c3 -5
-1 -10 -10 -10 -9 0 -13 5 -10 10 3 6 8 10 10 10 2 0 7 -4 10 -10z m1218 -22
c31 -12 34 -24 11 -56 -13 -19 -13 -22 0 -22 8 0 18 5 21 10 3 6 12 10 18 10
7 0 6 -4 -3 -10 -8 -5 -11 -10 -7 -10 20 0 -17 -41 -58 -63 -25 -14 -43 -22
-40 -16 4 5 2 9 -4 9 -5 0 -14 -8 -20 -17 -8 -14 -14 -16 -28 -7 -24 15 -29
45 -9 56 9 5 16 21 16 37 0 15 10 38 22 51 15 16 18 25 10 28 -7 2 -12 8 -12
14 0 11 35 5 83 -14z m691 7 c3 -8 4 -15 2 -15 -3 0 -13 -3 -23 -7 -15 -6 -16
-4 -6 9 7 8 10 18 6 21 -3 4 -2 7 4 7 6 0 13 -7 17 -15z m-1927 -22 c-9 -9
-19 -14 -23 -11 -10 10 6 28 24 28 15 0 15 -1 -1 -17z m1323 -14 c-11 -8 -5
-9 25 -4 40 6 40 6 20 -13 -11 -11 -31 -23 -45 -26 -24 -7 -24 -6 -6 8 19 16
19 16 -2 16 -22 0 -28 10 -15 23 3 4 13 7 22 7 14 0 14 -2 1 -11z m505 1 c-3
-5 -10 -10 -16 -10 -5 0 -9 5 -9 10 0 6 7 10 16 10 8 0 12 -4 9 -10z m-379
-46 c-9 -8 -16 -19 -16 -24 0 -5 -11 -20 -24 -35 -19 -20 -25 -23 -35 -12 -6
8 -7 18 -3 22 4 5 -1 5 -10 2 -31 -11 -19 2 30 33 52 33 84 41 58 14z m409 6
c-3 -5 -14 -10 -23 -10 -15 0 -15 2 -2 10 20 13 33 13 25 0z m-1950 -10 c-3
-5 -13 -10 -21 -10 -8 0 -12 5 -9 10 3 6 13 10 21 10 8 0 12 -4 9 -10z m115 3
c0 -14 -44 -53 -59 -53 -11 1 -7 6 9 15 15 9 19 15 10 15 -12 0 -11 4 4 15 21
16 36 19 36 8z m1527 -35 c-3 -8 -6 -5 -6 6 -1 11 2 17 5 13 3 -3 4 -12 1 -19z
m-87 -8 c0 -5 -4 -10 -10 -10 -5 0 -10 5 -10 10 0 6 5 10 10 10 6 0 10 -4 10
-10z m2610 -19 c0 -28 -12 -32 -38 -11 -29 24 -28 30 8 30 23 0 30 -5 30 -19z
m-2605 -11 c-3 -5 -12 -10 -20 -10 -8 0 -17 5 -20 10 -4 6 5 10 20 10 15 0 24
-4 20 -10z m329 0 c-12 -5 -25 -13 -29 -19 -3 -6 -13 -11 -22 -11 -14 0 -14 3
3 19 10 11 30 20 44 20 24 0 24 -1 4 -9z m116 -15 c-14 -17 -40 -20 -40 -6 0
8 18 16 44 20 5 0 3 -6 -4 -14z m43 0 c-3 -9 -8 -14 -10 -11 -3 3 -2 9 2 15 9
16 15 13 8 -4z m1171 -6 c42 -33 17 -49 -29 -18 -19 13 -35 27 -35 32 0 15 38
6 64 -14z m-1684 -9 c0 -5 -5 -10 -11 -10 -5 0 -7 5 -4 10 3 6 8 10 11 10 2 0
4 -4 4 -10z m70 1 c0 -12 -20 -25 -27 -18 -7 7 6 27 18 27 5 0 9 -4 9 -9z
m1430 -11 c0 -5 -8 -10 -17 -10 -15 0 -16 2 -3 10 19 12 20 12 20 0z m-1010
-4 c0 -11 -19 -15 -25 -6 -3 5 1 10 9 10 9 0 16 -2 16 -4z m995 -36 c3 -5 1
-10 -4 -10 -6 0 -11 5 -11 10 0 6 2 10 4 10 3 0 8 -4 11 -10z"/>
<path d="M4515 2200 c-3 -5 1 -10 10 -10 9 0 13 5 10 10 -3 6 -8 10 -10 10 -2
0 -7 -4 -10 -10z"/>
<path d="M4585 2200 c-4 -6 3 -10 14 -10 25 0 27 6 6 13 -8 4 -17 2 -20 -3z"/>
<path d="M4378 2193 c7 -3 16 -2 19 1 4 3 -2 6 -13 5 -11 0 -14 -3 -6 -6z"/>
<path d="M4448 2193 c6 -2 18 -2 25 0 6 3 1 5 -13 5 -14 0 -19 -2 -12 -5z"/>
<path d="M4440 2160 c0 -5 7 -10 16 -10 8 0 12 5 9 10 -3 6 -10 10 -16 10 -5
0 -9 -4 -9 -10z"/>
<path d="M4510 2160 c0 -5 7 -10 16 -10 8 0 12 5 9 10 -3 6 -10 10 -16 10 -5
0 -9 -4 -9 -10z"/>
<path d="M4580 2160 c0 -5 9 -10 21 -10 11 0 17 5 14 10 -3 6 -13 10 -21 10
-8 0 -14 -4 -14 -10z"/>
<path d="M4378 2153 c7 -3 16 -2 19 1 4 3 -2 6 -13 5 -11 0 -14 -3 -6 -6z"/>
<path d="M4370 2120 c0 -5 7 -10 16 -10 8 0 12 5 9 10 -3 6 -10 10 -16 10 -5
0 -9 -4 -9 -10z"/>
<path d="M4440 2120 c0 -5 7 -10 16 -10 8 0 12 5 9 10 -3 6 -10 10 -16 10 -5
0 -9 -4 -9 -10z"/>
<path d="M4510 2120 c0 -5 7 -10 15 -10 8 0 15 5 15 10 0 6 -7 10 -15 10 -8 0
-15 -4 -15 -10z"/>
<path d="M4580 2120 c0 -5 9 -10 20 -10 11 0 20 5 20 10 0 6 -9 10 -20 10 -11
0 -20 -4 -20 -10z"/>
<path d="M4435 2080 c-3 -5 3 -10 15 -10 12 0 18 5 15 10 -3 6 -10 10 -15 10
-5 0 -12 -4 -15 -10z"/>
<path d="M4510 2080 c0 -5 7 -10 15 -10 8 0 15 5 15 10 0 6 -7 10 -15 10 -8 0
-15 -4 -15 -10z"/>
<path d="M4580 2080 c0 -5 7 -10 15 -10 8 0 15 5 15 10 0 6 -7 10 -15 10 -8 0
-15 -4 -15 -10z"/>
<path d="M4500 2040 c0 -5 9 -10 20 -10 11 0 20 5 20 10 0 6 -9 10 -20 10 -11
0 -20 -4 -20 -10z"/>
<path d="M4570 2040 c0 -5 9 -10 20 -10 11 0 20 5 20 10 0 6 -9 10 -20 10 -11
0 -20 -4 -20 -10z"/>
<path d="M4570 2000 c0 -5 9 -10 20 -10 11 0 20 5 20 10 0 6 -9 10 -20 10 -11
0 -20 -4 -20 -10z"/>
<path d="M4570 1960 c0 -5 9 -10 20 -10 11 0 20 5 20 10 0 6 -9 10 -20 10 -11
0 -20 -4 -20 -10z"/>
<path d="M1975 1800 c-3 -5 3 -10 15 -10 12 0 18 5 15 10 -3 6 -10 10 -15 10
-5 0 -12 -4 -15 -10z"/>
<path d="M3880 2150 c0 -5 7 -10 15 -10 8 0 15 5 15 10 0 6 -7 10 -15 10 -8 0
-15 -4 -15 -10z"/>
<path d="M3950 2150 c0 -5 7 -10 15 -10 8 0 15 5 15 10 0 6 -7 10 -15 10 -8 0
-15 -4 -15 -10z"/>
<path d="M4020 2150 c0 -5 7 -10 15 -10 8 0 15 5 15 10 0 6 -7 10 -15 10 -8 0
-15 -4 -15 -10z"/>
<path d="M4090 2150 c0 -5 7 -10 15 -10 8 0 15 5 15 10 0 6 -7 10 -15 10 -8 0
-15 -4 -15 -10z"/>
<path d="M4085 2120 c-4 -6 3 -10 14 -10 25 0 27 6 6 13 -8 4 -17 2 -20 -3z"/>
<path d="M3535 2110 c-3 -5 1 -10 10 -10 9 0 13 5 10 10 -3 6 -8 10 -10 10 -2
0 -7 -4 -10 -10z"/>
<path d="M3600 2110 c0 -5 7 -10 16 -10 8 0 12 5 9 10 -3 6 -10 10 -16 10 -5
0 -9 -4 -9 -10z"/>
<path d="M3875 2110 c3 -5 13 -10 21 -10 8 0 14 5 14 10 0 6 -9 10 -21 10 -11
0 -17 -4 -14 -10z"/>
<path d="M3948 2108 c9 -9 15 -9 24 0 9 9 7 12 -12 12 -19 0 -21 -3 -12 -12z"/>
<path d="M4018 2113 c6 -2 18 -2 25 0 6 3 1 5 -13 5 -14 0 -19 -2 -12 -5z"/>
<path d="M4158 2113 c7 -3 16 -2 19 1 4 3 -2 6 -13 5 -11 0 -14 -3 -6 -6z"/>
<path d="M3945 2080 c-4 -6 3 -10 14 -10 25 0 27 6 6 13 -8 4 -17 2 -20 -3z"/>
<path d="M4015 2080 c-3 -5 1 -10 10 -10 9 0 13 5 10 10 -3 6 -8 10 -10 10 -2
0 -7 -4 -10 -10z"/>
<path d="M4080 2080 c0 -6 7 -10 15 -10 8 0 15 2 15 4 0 2 -7 6 -15 10 -8 3
-15 1 -15 -4z"/>
<path d="M4150 2080 c0 -5 7 -10 16 -10 8 0 12 5 9 10 -3 6 -10 10 -16 10 -5
0 -9 -4 -9 -10z"/>
<path d="M3530 2070 c0 -5 7 -10 16 -10 8 0 12 5 9 10 -3 6 -10 10 -16 10 -5
0 -9 -4 -9 -10z"/>
<path d="M3595 2070 c-3 -5 3 -10 15 -10 12 0 18 5 15 10 -3 6 -10 10 -15 10
-5 0 -12 -4 -15 -10z"/>
<path d="M3878 2073 c6 -2 18 -2 25 0 6 3 1 5 -13 5 -14 0 -19 -2 -12 -5z"/>
<path d="M3875 2040 c-4 -6 3 -10 14 -10 25 0 27 6 6 13 -8 4 -17 2 -20 -3z"/>
<path d="M3940 2040 c0 -5 7 -10 16 -10 8 0 12 5 9 10 -3 6 -10 10 -16 10 -5
0 -9 -4 -9 -10z"/>
<path d="M4015 2040 c-3 -5 1 -10 10 -10 9 0 13 5 10 10 -3 6 -8 10 -10 10 -2
0 -7 -4 -10 -10z"/>
<path d="M4080 2040 c0 -5 7 -10 16 -10 8 0 12 5 9 10 -3 6 -10 10 -16 10 -5
0 -9 -4 -9 -10z"/>
<path d="M4150 2040 c0 -5 7 -10 15 -10 8 0 15 5 15 10 0 6 -7 10 -15 10 -8 0
-15 -4 -15 -10z"/>
<path d="M3530 2030 c0 -5 7 -10 16 -10 8 0 12 5 9 10 -3 6 -10 10 -16 10 -5
0 -9 -4 -9 -10z"/>
<path d="M3590 2030 c0 -5 7 -10 15 -10 8 0 15 5 15 10 0 6 -7 10 -15 10 -8 0
-15 -4 -15 -10z"/>
<path d="M4262 2018 c-17 -17 -15 -28 7 -28 19 0 35 23 24 34 -9 9 -18 7 -31
-6z"/>
<path d="M3870 2000 c0 -5 7 -10 15 -10 8 0 15 5 15 10 0 6 -7 10 -15 10 -8 0
-15 -4 -15 -10z"/>
<path d="M3940 2000 c0 -5 7 -10 16 -10 8 0 12 5 9 10 -3 6 -10 10 -16 10 -5
0 -9 -4 -9 -10z"/>
<path d="M4010 2000 c0 -5 7 -10 15 -10 8 0 15 5 15 10 0 6 -7 10 -15 10 -8 0
-15 -4 -15 -10z"/>
<path d="M4080 2000 c0 -5 7 -10 16 -10 8 0 12 5 9 10 -3 6 -10 10 -16 10 -5
0 -9 -4 -9 -10z"/>
<path d="M4150 2000 c0 -5 7 -10 15 -10 8 0 15 5 15 10 0 6 -7 10 -15 10 -8 0
-15 -4 -15 -10z"/>
<path d="M4360 2000 c0 -5 7 -10 15 -10 8 0 15 5 15 10 0 6 -7 10 -15 10 -8 0
-15 -4 -15 -10z"/>
<path d="M3525 1990 c3 -5 10 -10 16 -10 5 0 9 5 9 10 0 6 -7 10 -16 10 -8 0
-12 -4 -9 -10z"/>
<path d="M3595 1990 c3 -5 10 -10 16 -10 5 0 9 5 9 10 0 6 -7 10 -16 10 -8 0
-12 -4 -9 -10z"/>
<path d="M3590 1960 c0 -13 18 -22 24 -11 3 5 -1 11 -9 15 -8 3 -15 1 -15 -4z"/>
<path d="M3870 1960 c0 -5 7 -10 15 -10 8 0 15 5 15 10 0 6 -7 10 -15 10 -8 0
-15 -4 -15 -10z"/>
<path d="M3940 1960 c0 -5 7 -10 15 -10 8 0 15 5 15 10 0 6 -7 10 -15 10 -8 0
-15 -4 -15 -10z"/>
<path d="M4010 1960 c0 -5 7 -10 15 -10 8 0 15 5 15 10 0 6 -7 10 -15 10 -8 0
-15 -4 -15 -10z"/>
<path d="M4080 1960 c0 -5 7 -10 16 -10 8 0 12 5 9 10 -3 6 -10 10 -16 10 -5
0 -9 -4 -9 -10z"/>
<path d="M4150 1960 c0 -5 7 -10 16 -10 8 0 12 5 9 10 -3 6 -10 10 -16 10 -5
0 -9 -4 -9 -10z"/>
<path d="M4360 1960 c0 -5 7 -10 15 -10 8 0 15 5 15 10 0 6 -7 10 -15 10 -8 0
-15 -4 -15 -10z"/>
<path d="M3528 1953 c7 -3 16 -2 19 1 4 3 -2 6 -13 5 -11 0 -14 -3 -6 -6z"/>
<path d="M3860 1920 c0 -5 9 -10 20 -10 11 0 20 5 20 10 0 6 -9 10 -20 10 -11
0 -20 -4 -20 -10z"/>
<path d="M3930 1920 c0 -5 6 -10 14 -10 8 0 18 5 21 10 3 6 -3 10 -14 10 -12
0 -21 -4 -21 -10z"/>
<path d="M4005 1920 c3 -5 10 -10 16 -10 5 0 9 5 9 10 0 6 -7 10 -16 10 -8 0
-12 -4 -9 -10z"/>
<path d="M4075 1920 c3 -5 10 -10 16 -10 5 0 9 5 9 10 0 6 -7 10 -16 10 -8 0
-12 -4 -9 -10z"/>
<path d="M4145 1920 c3 -5 10 -10 16 -10 5 0 9 5 9 10 0 6 -7 10 -16 10 -8 0
-12 -4 -9 -10z"/>
<path d="M4355 1920 c3 -5 10 -10 16 -10 5 0 9 5 9 10 0 6 -7 10 -16 10 -8 0
-12 -4 -9 -10z"/>
<path d="M4428 1918 c9 -9 15 -9 24 0 9 9 7 12 -12 12 -19 0 -21 -3 -12 -12z"/>
<path d="M3520 1880 c0 -5 5 -10 10 -10 6 0 10 5 10 10 0 6 -4 10 -10 10 -5 0
-10 -4 -10 -10z"/>
<path d="M3580 1880 c0 -5 7 -10 15 -10 8 0 15 5 15 10 0 6 -7 10 -15 10 -8 0
-15 -4 -15 -10z"/>
<path d="M3860 1880 c0 -5 7 -10 15 -10 8 0 15 5 15 10 0 6 -7 10 -15 10 -8 0
-15 -4 -15 -10z"/>
<path d="M3930 1880 c0 -5 7 -10 15 -10 8 0 15 5 15 10 0 6 -7 10 -15 10 -8 0
-15 -4 -15 -10z"/>
<path d="M4005 1880 c3 -5 10 -10 16 -10 5 0 9 5 9 10 0 6 -7 10 -16 10 -8 0
-12 -4 -9 -10z"/>
<path d="M4075 1880 c3 -5 10 -10 16 -10 5 0 9 5 9 10 0 6 -7 10 -16 10 -8 0
-12 -4 -9 -10z"/>
<path d="M4145 1880 c3 -5 10 -10 16 -10 5 0 9 5 9 10 0 6 -7 10 -16 10 -8 0
-12 -4 -9 -10z"/>
<path d="M4355 1880 c3 -5 10 -10 16 -10 5 0 9 5 9 10 0 6 -7 10 -16 10 -8 0
-12 -4 -9 -10z"/>
<path d="M4428 1878 c9 -9 15 -9 24 0 9 9 7 12 -12 12 -19 0 -21 -3 -12 -12z"/>
<path d="M3515 1840 c3 -5 10 -10 16 -10 5 0 9 5 9 10 0 6 -7 10 -16 10 -8 0
-12 -4 -9 -10z"/>
<path d="M3580 1840 c0 -5 7 -10 15 -10 8 0 15 5 15 10 0 6 -7 10 -15 10 -8 0
-15 -4 -15 -10z"/>
<path d="M3865 1840 c3 -5 10 -10 16 -10 5 0 9 5 9 10 0 6 -7 10 -16 10 -8 0
-12 -4 -9 -10z"/>
<path d="M3935 1840 c4 -6 11 -8 16 -5 14 9 11 15 -7 15 -8 0 -12 -5 -9 -10z"/>
<path d="M4005 1840 c4 -6 11 -8 16 -5 14 9 11 15 -7 15 -8 0 -12 -5 -9 -10z"/>
<path d="M4078 1843 c7 -3 16 -2 19 1 4 3 -2 6 -13 5 -11 0 -14 -3 -6 -6z"/>
<path d="M4148 1843 c7 -3 16 -2 19 1 4 3 -2 6 -13 5 -11 0 -14 -3 -6 -6z"/>
<path d="M4350 1840 c0 -5 7 -10 15 -10 8 0 15 5 15 10 0 6 -7 10 -15 10 -8 0
-15 -4 -15 -10z"/>
<path d="M4425 1840 c3 -5 12 -7 20 -3 21 7 19 13 -6 13 -11 0 -18 -4 -14 -10z"/>
<path d="M4490 1846 c0 -9 30 -14 35 -6 4 6 -3 10 -14 10 -12 0 -21 -2 -21 -4z"/>
<path d="M3856 1811 c-3 -5 1 -11 9 -15 15 -6 29 7 18 18 -9 9 -21 8 -27 -3z"/>
<path d="M3930 1810 c0 -6 7 -10 15 -10 8 0 15 2 15 4 0 2 -7 6 -15 10 -8 3
-15 1 -15 -4z"/>
<path d="M4140 1810 c0 -6 7 -10 15 -10 8 0 15 2 15 4 0 2 -7 6 -15 10 -8 3
-15 1 -15 -4z"/>
<path d="M4415 1810 c-3 -5 3 -10 15 -10 12 0 18 5 15 10 -3 6 -10 10 -15 10
-5 0 -12 -4 -15 -10z"/>
<path d="M3515 1800 c3 -5 10 -10 16 -10 5 0 9 5 9 10 0 6 -7 10 -16 10 -8 0
-12 -4 -9 -10z"/>
<path d="M3585 1800 c3 -5 10 -10 16 -10 5 0 9 5 9 10 0 6 -7 10 -16 10 -8 0
-12 -4 -9 -10z"/>
<path d="M3998 1803 c6 -2 18 -2 25 0 6 3 1 5 -13 5 -14 0 -19 -2 -12 -5z"/>
<path d="M4068 1803 c6 -2 18 -2 25 0 6 3 1 5 -13 5 -14 0 -19 -2 -12 -5z"/>
<path d="M4348 1803 c6 -2 18 -2 25 0 6 3 1 5 -13 5 -14 0 -19 -2 -12 -5z"/>
<path d="M3850 1770 c0 -5 9 -10 20 -10 11 0 20 5 20 10 0 6 -9 10 -20 10 -11
0 -20 -4 -20 -10z"/>
<path d="M3920 1770 c0 -5 9 -10 21 -10 11 0 17 5 14 10 -3 6 -13 10 -21 10
-8 0 -14 -4 -14 -10z"/>
<path d="M3990 1770 c0 -5 9 -10 21 -10 11 0 17 5 14 10 -3 6 -13 10 -21 10
-8 0 -14 -4 -14 -10z"/>
<path d="M4060 1770 c0 -5 9 -10 21 -10 11 0 17 5 14 10 -3 6 -13 10 -21 10
-8 0 -14 -4 -14 -10z"/>
<path d="M4130 1770 c0 -5 9 -10 21 -10 11 0 17 5 14 10 -3 6 -13 10 -21 10
-8 0 -14 -4 -14 -10z"/>
<path d="M3518 1763 c7 -3 16 -2 19 1 4 3 -2 6 -13 5 -11 0 -14 -3 -6 -6z"/>
<path d="M3850 1730 c0 -5 9 -10 20 -10 11 0 20 5 20 10 0 6 -9 10 -20 10 -11
0 -20 -4 -20 -10z"/>
<path d="M3920 1730 c0 -5 9 -10 21 -10 11 0 17 5 14 10 -3 6 -13 10 -21 10
-8 0 -14 -4 -14 -10z"/>
<path d="M3990 1730 c0 -5 9 -10 21 -10 11 0 17 5 14 10 -3 6 -13 10 -21 10
-8 0 -14 -4 -14 -10z"/>
<path d="M4060 1730 c0 -5 7 -10 15 -10 8 0 15 5 15 10 0 6 -7 10 -15 10 -8 0
-15 -4 -15 -10z"/>
<path d="M4130 1730 c0 -5 7 -10 15 -10 8 0 15 5 15 10 0 6 -7 10 -15 10 -8 0
-15 -4 -15 -10z"/>
<path d="M3518 1723 c7 -3 16 -2 19 1 4 3 -2 6 -13 5 -11 0 -14 -3 -6 -6z"/>
<path d="M3845 1690 c-4 -6 5 -10 19 -10 14 0 26 5 26 10 0 6 -9 10 -19 10
-11 0 -23 -4 -26 -10z"/>
<path d="M3920 1690 c0 -5 7 -10 15 -10 8 0 15 5 15 10 0 6 -7 10 -15 10 -8 0
-15 -4 -15 -10z"/>
<path d="M3982 1679 c-8 -12 -19 -18 -30 -15 -9 3 -24 1 -32 -4 -12 -8 -12
-10 2 -15 10 -4 21 -4 27 -1 5 4 12 2 16 -4 4 -6 -7 -10 -25 -10 -35 0 -38
-22 -4 -28 10 -2 23 -8 29 -13 6 -6 -3 -7 -22 -3 -17 3 -33 2 -37 -4 -7 -11
98 -27 113 -17 6 3 8 12 4 20 -4 12 5 15 42 15 38 0 48 -4 52 -20 4 -16 14
-20 49 -20 24 0 44 5 44 10 0 6 -7 10 -15 10 -8 0 -22 11 -31 24 -8 14 -25 26
-37 28 -12 2 -21 9 -20 15 2 7 -7 15 -19 18 -16 6 -18 9 -7 16 7 4 10 11 6 16
-4 4 -17 1 -29 -6 -14 -9 -23 -10 -31 -2 -16 16 -31 13 -45 -10z"/>
<path d="M4130 1690 c0 -5 7 -10 15 -10 8 0 15 5 15 10 0 6 -7 10 -15 10 -8 0
-15 -4 -15 -10z"/>
<path d="M3840 1655 c0 -8 9 -15 19 -15 26 0 35 16 15 24 -25 10 -34 7 -34 -9z"/>
<path d="M4120 1650 c0 -5 9 -10 19 -10 11 0 23 5 26 10 4 6 -5 10 -19 10 -14
0 -26 -4 -26 -10z"/>
<path d="M3708 1620 c-8 -41 -11 -180 -4 -180 12 0 23 102 17 155 -6 56 -7 57
-13 25z"/>
<path d="M3836 1614 c-5 -12 0 -15 21 -12 14 2 28 9 31 16 6 18 -45 15 -52 -4z"/>
<path d="M3815 1580 c44 -11 65 -11 65 0 0 6 -21 9 -47 9 -43 -1 -45 -2 -18
-9z"/>
<path d="M4045 1580 c-4 -6 5 -10 19 -10 14 0 26 5 26 10 0 6 -9 10 -19 10
-11 0 -23 -4 -26 -10z"/>
<path d="M3780 1554 c0 -9 5 -14 12 -12 18 6 21 28 4 28 -9 0 -16 -7 -16 -16z"/>
<path d="M3835 1540 c3 -5 15 -10 26 -10 10 0 19 5 19 10 0 6 -12 10 -26 10
-14 0 -23 -4 -19 -10z"/>
<path d="M3900 1540 c0 -5 11 -10 25 -10 14 0 25 5 25 10 0 6 -11 10 -25 10
-14 0 -25 -4 -25 -10z"/>
<path d="M3970 1534 c0 -10 7 -14 22 -12 32 5 35 28 4 28 -17 0 -26 -5 -26
-16z"/>
<path d="M4045 1540 c-3 -5 3 -10 14 -10 12 0 21 5 21 10 0 6 -6 10 -14 10 -8
0 -18 -4 -21 -10z"/>
<path d="M4115 1540 c-3 -5 3 -10 14 -10 12 0 21 5 21 10 0 6 -6 10 -14 10 -8
0 -18 -4 -21 -10z"/>
<path d="M3835 1500 c3 -5 13 -10 21 -10 8 0 14 5 14 10 0 6 -9 10 -21 10 -11
0 -17 -4 -14 -10z"/>
<path d="M3900 1500 c0 -5 11 -10 25 -10 14 0 25 5 25 10 0 6 -11 10 -25 10
-14 0 -25 -4 -25 -10z"/>
<path d="M3965 1500 c3 -5 15 -10 26 -10 10 0 19 5 19 10 0 6 -12 10 -26 10
-14 0 -23 -4 -19 -10z"/>
<path d="M4040 1500 c0 -5 9 -10 20 -10 11 0 20 5 20 10 0 6 -9 10 -20 10 -11
0 -20 -4 -20 -10z"/>
<path d="M3966 1464 c-4 -10 2 -14 19 -14 30 0 33 16 6 23 -12 3 -22 -1 -25
-9z"/>
<path d="M3835 1460 c3 -5 13 -10 21 -10 8 0 14 5 14 10 0 6 -9 10 -21 10 -11
0 -17 -4 -14 -10z"/>
<path d="M3900 1460 c0 -5 9 -10 20 -10 11 0 20 5 20 10 0 6 -9 10 -20 10 -11
0 -20 -4 -20 -10z"/>
<path d="M3906 1433 c-12 -12 -5 -23 14 -23 11 0 20 4 20 9 0 11 -26 22 -34
14z"/>
<path d="M3838 1418 c9 -9 15 -9 24 0 9 9 7 12 -12 12 -19 0 -21 -3 -12 -12z"/>
<path d="M3835 1390 c-3 -5 3 -10 15 -10 12 0 18 5 15 10 -3 6 -10 10 -15 10
-5 0 -12 -4 -15 -10z"/>
<path d="M3830 1350 c0 -5 7 -10 15 -10 8 0 15 5 15 10 0 6 -7 10 -15 10 -8 0
-15 -4 -15 -10z"/>
<path d="M4988 1233 c7 -3 16 -2 19 1 4 3 -2 6 -13 5 -11 0 -14 -3 -6 -6z"/>
<path d="M5068 1208 c12 -6 22 -15 22 -20 0 -4 8 -8 18 -8 12 0 8 6 -13 20
-16 11 -34 20 -40 19 -5 0 0 -5 13 -11z"/>
<path d="M2550 1925 c-7 -9 -8 -15 -2 -15 5 0 12 7 16 15 3 8 4 15 2 15 -2 0
-9 -7 -16 -15z"/>
<path d="M2475 1360 c3 -5 8 -10 11 -10 2 0 4 5 4 10 0 6 -5 10 -11 10 -5 0
-7 -4 -4 -10z"/>
<path d="M1418 1653 c7 -3 16 -2 19 1 4 3 -2 6 -13 5 -11 0 -14 -3 -6 -6z"/>
<path d="M1475 1650 c3 -5 8 -10 11 -10 2 0 4 5 4 10 0 6 -5 10 -11 10 -5 0
-7 -4 -4 -10z"/>
<path d="M1530 1650 c0 -5 5 -10 10 -10 6 0 10 5 10 10 0 6 -4 10 -10 10 -5 0
-10 -4 -10 -10z"/>
<path d="M1658 1643 c7 -3 16 -2 19 1 4 3 -2 6 -13 5 -11 0 -14 -3 -6 -6z"/>
<path d="M1410 1620 c0 -5 5 -10 11 -10 5 0 7 5 4 10 -3 6 -8 10 -11 10 -2 0
-4 -4 -4 -10z"/>
<path d="M1528 1613 c7 -3 16 -2 19 1 4 3 -2 6 -13 5 -11 0 -14 -3 -6 -6z"/>
<path d="M1588 1613 c7 -3 16 -2 19 1 4 3 -2 6 -13 5 -11 0 -14 -3 -6 -6z"/>
<path d="M1645 1610 c4 -6 11 -8 16 -5 14 9 11 15 -7 15 -8 0 -12 -5 -9 -10z"/>
<path d="M1220 1590 c0 -5 7 -10 15 -10 8 0 15 5 15 10 0 6 -7 10 -15 10 -8 0
-15 -4 -15 -10z"/>
<path d="M1408 1583 c7 -3 16 -2 19 1 4 3 -2 6 -13 5 -11 0 -14 -3 -6 -6z"/>
<path d="M1525 1580 c3 -5 8 -10 11 -10 2 0 4 5 4 10 0 6 -5 10 -11 10 -5 0
-7 -4 -4 -10z"/>
<path d="M1585 1580 c-3 -5 -1 -10 4 -10 6 0 11 5 11 10 0 6 -2 10 -4 10 -3 0
-8 -4 -11 -10z"/>
<path d="M1640 1580 c0 -5 5 -10 10 -10 6 0 10 5 10 10 0 6 -4 10 -10 10 -5 0
-10 -4 -10 -10z"/>
<path d="M1168 1553 c7 -3 16 -2 19 1 4 3 -2 6 -13 5 -11 0 -14 -3 -6 -6z"/>
<path d="M1395 1550 c3 -5 10 -10 16 -10 5 0 9 5 9 10 0 6 -7 10 -16 10 -8 0
-12 -4 -9 -10z"/>
<path d="M1450 1550 c0 -5 7 -10 16 -10 8 0 12 5 9 10 -3 6 -10 10 -16 10 -5
0 -9 -4 -9 -10z"/>
<path d="M1518 1543 c7 -3 16 -2 19 1 4 3 -2 6 -13 5 -11 0 -14 -3 -6 -6z"/>
<path d="M1578 1543 c7 -3 16 -2 19 1 4 3 -2 6 -13 5 -11 0 -14 -3 -6 -6z"/>
<path d="M1638 1543 c7 -3 16 -2 19 1 4 3 -2 6 -13 5 -11 0 -14 -3 -6 -6z"/>
<path d="M1098 1523 c7 -3 16 -2 19 1 4 3 -2 6 -13 5 -11 0 -14 -3 -6 -6z"/>
<path d="M1158 1523 c7 -3 16 -2 19 1 4 3 -2 6 -13 5 -11 0 -14 -3 -6 -6z"/>
<path d="M1218 1523 c7 -3 16 -2 19 1 4 3 -2 6 -13 5 -11 0 -14 -3 -6 -6z"/>
<path d="M1388 1513 c7 -3 16 -2 19 1 4 3 -2 6 -13 5 -11 0 -14 -3 -6 -6z"/>
<path d="M1515 1510 c3 -5 8 -10 11 -10 2 0 4 5 4 10 0 6 -5 10 -11 10 -5 0
-7 -4 -4 -10z"/>
<path d="M1565 1510 c3 -5 10 -10 16 -10 5 0 9 5 9 10 0 6 -7 10 -16 10 -8 0
-12 -4 -9 -10z"/>
<path d="M1630 1510 c0 -5 7 -10 16 -10 8 0 12 5 9 10 -3 6 -10 10 -16 10 -5
0 -9 -4 -9 -10z"/>
<path d="M1150 1490 c0 -5 5 -10 10 -10 6 0 10 5 10 10 0 6 -4 10 -10 10 -5 0
-10 -4 -10 -10z"/>
<path d="M1208 1483 c7 -3 16 -2 19 1 4 3 -2 6 -13 5 -11 0 -14 -3 -6 -6z"/>
<path d="M1385 1480 c4 -6 11 -8 16 -5 14 9 11 15 -7 15 -8 0 -12 -5 -9 -10z"/>
<path d="M1440 1480 c0 -5 7 -10 16 -10 8 0 12 5 9 10 -3 6 -10 10 -16 10 -5
0 -9 -4 -9 -10z"/>
<path d="M1500 1480 c0 -5 7 -10 16 -10 8 0 12 5 9 10 -3 6 -10 10 -16 10 -5
0 -9 -4 -9 -10z"/>
<path d="M1568 1473 c7 -3 16 -2 19 1 4 3 -2 6 -13 5 -11 0 -14 -3 -6 -6z"/>
<path d="M1628 1473 c7 -3 16 -2 19 1 4 3 -2 6 -13 5 -11 0 -14 -3 -6 -6z"/>
<path d="M1380 1450 c0 -5 5 -10 10 -10 6 0 10 5 10 10 0 6 -4 10 -10 10 -5 0
-10 -4 -10 -10z"/>
<path d="M1438 1443 c6 -2 18 -2 25 0 6 3 1 5 -13 5 -14 0 -19 -2 -12 -5z"/>
<path d="M1498 1443 c7 -3 16 -2 19 1 4 3 -2 6 -13 5 -11 0 -14 -3 -6 -6z"/>
<path d="M1550 1440 c0 -5 6 -10 14 -10 8 0 18 5 21 10 3 6 -3 10 -14 10 -12
0 -21 -4 -21 -10z"/>
<path d="M1610 1440 c0 -5 9 -10 20 -10 11 0 20 5 20 10 0 6 -9 10 -20 10 -11
0 -20 -4 -20 -10z"/>
<path d="M1430 1410 c0 -5 7 -10 15 -10 8 0 15 5 15 10 0 6 -7 10 -15 10 -8 0
-15 -4 -15 -10z"/>
<path d="M1485 1410 c-3 -5 3 -10 14 -10 12 0 21 5 21 10 0 6 -6 10 -14 10 -8
0 -18 -4 -21 -10z"/>
<path d="M1550 1410 c0 -5 7 -10 15 -10 8 0 15 5 15 10 0 6 -7 10 -15 10 -8 0
-15 -4 -15 -10z"/>
<path d="M1605 1410 c-3 -5 3 -10 15 -10 12 0 18 5 15 10 -3 6 -10 10 -15 10
-5 0 -12 -4 -15 -10z"/>
<path d="M1542 1378 c5 -15 28 -23 28 -10 0 5 -7 13 -16 16 -10 4 -14 1 -12
-6z"/>
<path d="M1600 1370 c0 -5 9 -10 20 -10 11 0 20 5 20 10 0 6 -9 10 -20 10 -11
0 -20 -4 -20 -10z"/>
<path d="M1590 1341 c0 -13 25 -20 39 -11 10 5 8 9 -4 14 -23 8 -35 8 -35 -3z"/>
<path d="M3952 1053 c-6 -3 -10 -9 -6 -14 7 -12 44 -12 44 0 0 11 -21 19 -38
14z"/>
<path d="M4020 1040 c0 -5 9 -10 20 -10 11 0 20 5 20 10 0 6 -9 10 -20 10 -11
0 -20 -4 -20 -10z"/>
<path d="M4090 1040 c0 -5 9 -10 20 -10 11 0 20 5 20 10 0 6 -9 10 -20 10 -11
0 -20 -4 -20 -10z"/>
<path d="M3883 1008 c2 -7 10 -13 17 -13 7 0 15 6 18 13 2 7 -5 12 -18 12 -13
0 -20 -5 -17 -12z"/>
<path d="M3947 1014 c-11 -11 3 -24 24 -24 12 0 19 5 17 13 -5 14 -31 21 -41
11z"/>
<path d="M4020 1000 c0 -5 6 -10 14 -10 8 0 18 5 21 10 3 6 -3 10 -14 10 -12
0 -21 -4 -21 -10z"/>
<path d="M4090 1000 c0 -5 6 -10 14 -10 8 0 18 5 21 10 3 6 -3 10 -14 10 -12
0 -21 -4 -21 -10z"/>
<path d="M3946 971 c-6 -10 16 -21 41 -21 13 0 13 3 3 15 -14 17 -36 20 -44 6z"/>
<path d="M4016 971 c-7 -11 22 -23 36 -15 6 4 5 10 -3 15 -18 11 -26 11 -33 0z"/>
<path d="M4085 960 c3 -5 13 -10 21 -10 8 0 14 5 14 10 0 6 -9 10 -21 10 -11
0 -17 -4 -14 -10z"/>
<path d="M4290 959 c0 -5 5 -7 10 -4 6 3 10 8 10 11 0 2 -4 4 -10 4 -5 0 -10
-5 -10 -11z"/>
<path d="M4085 920 c3 -5 13 -10 21 -10 8 0 14 5 14 10 0 6 -9 10 -21 10 -11
0 -17 -4 -14 -10z"/>
<path d="M4132 871 c-71 -18 -72 -31 -2 -31 33 0 52 6 63 18 33 36 28 37 -61
13z"/>
<path d="M3865 700 c3 -5 12 -10 20 -10 8 0 17 5 20 10 4 6 -5 10 -20 10 -15
0 -24 -4 -20 -10z"/>
<path d="M3935 700 c-3 -5 3 -10 14 -10 12 0 21 5 21 10 0 6 -6 10 -14 10 -8
0 -18 -4 -21 -10z"/>
<path d="M814 1333 c-3 -16 -10 -39 -15 -52 -5 -13 -7 -26 -4 -29 11 -12 28
19 35 63 7 48 -6 63 -16 18z"/>
<path d="M1138 1103 c6 -2 18 -2 25 0 6 3 1 5 -13 5 -14 0 -19 -2 -12 -5z"/>
<path d="M900 1080 c0 -5 5 -10 10 -10 6 0 10 5 10 10 0 6 -4 10 -10 10 -5 0
-10 -4 -10 -10z"/>
<path d="M960 1080 c0 -5 5 -10 11 -10 5 0 7 5 4 10 -3 6 -8 10 -11 10 -2 0
-4 -4 -4 -10z"/>
<path d="M1078 1073 c7 -3 16 -2 19 1 4 3 -2 6 -13 5 -11 0 -14 -3 -6 -6z"/>
<path d="M1135 1070 c3 -5 10 -10 16 -10 5 0 9 5 9 10 0 6 -7 10 -16 10 -8 0
-12 -4 -9 -10z"/>
<path d="M1010 1040 c0 -5 4 -10 9 -10 6 0 13 5 16 10 3 6 -1 10 -9 10 -9 0
-16 -4 -16 -10z"/>
<path d="M1068 1033 c7 -3 16 -2 19 1 4 3 -2 6 -13 5 -11 0 -14 -3 -6 -6z"/>
<path d="M1128 1033 c7 -3 16 -2 19 1 4 3 -2 6 -13 5 -11 0 -14 -3 -6 -6z"/>
<path d="M1808 1063 c7 -3 16 -2 19 1 4 3 -2 6 -13 5 -11 0 -14 -3 -6 -6z"/>
<path d="M1765 850 c-3 -5 1 -10 9 -10 9 0 16 5 16 10 0 6 -4 10 -9 10 -6 0
-13 -4 -16 -10z"/>
<path d="M1510 840 c0 -5 7 -10 15 -10 8 0 15 5 15 10 0 6 -7 10 -15 10 -8 0
-15 -4 -15 -10z"/>
<path d="M1765 810 c3 -5 8 -10 11 -10 2 0 4 5 4 10 0 6 -5 10 -11 10 -5 0 -7
-4 -4 -10z"/>
<path d="M1508 803 c7 -3 16 -2 19 1 4 3 -2 6 -13 5 -11 0 -14 -3 -6 -6z"/>
<path d="M1448 773 c7 -3 16 -2 19 1 4 3 -2 6 -13 5 -11 0 -14 -3 -6 -6z"/>
<path d="M1500 770 c0 -5 7 -10 15 -10 8 0 15 5 15 10 0 6 -7 10 -15 10 -8 0
-15 -4 -15 -10z"/>
<path d="M1758 773 c7 -3 16 -2 19 1 4 3 -2 6 -13 5 -11 0 -14 -3 -6 -6z"/>
<path d="M1375 740 c3 -5 10 -10 16 -10 5 0 9 5 9 10 0 6 -7 10 -16 10 -8 0
-12 -4 -9 -10z"/>
<path d="M1750 740 c0 -5 5 -10 10 -10 6 0 10 5 10 10 0 6 -4 10 -10 10 -5 0
-10 -4 -10 -10z"/>
<path d="M1438 733 c7 -3 16 -2 19 1 4 3 -2 6 -13 5 -11 0 -14 -3 -6 -6z"/>
<path d="M1498 733 c7 -3 16 -2 19 1 4 3 -2 6 -13 5 -11 0 -14 -3 -6 -6z"/>
<path d="M1378 703 c7 -3 16 -2 19 1 4 3 -2 6 -13 5 -11 0 -14 -3 -6 -6z"/>
<path d="M1430 700 c0 -5 7 -10 15 -10 8 0 15 5 15 10 0 6 -7 10 -15 10 -8 0
-15 -4 -15 -10z"/>
<path d="M1738 703 c6 -2 18 -2 25 0 6 3 1 5 -13 5 -14 0 -19 -2 -12 -5z"/>
<path d="M1488 693 c6 -2 18 -2 25 0 6 3 1 5 -13 5 -14 0 -19 -2 -12 -5z"/>
<path d="M1300 670 c0 -5 7 -10 15 -10 8 0 15 5 15 10 0 6 -7 10 -15 10 -8 0
-15 -4 -15 -10z"/>
<path d="M1368 663 c7 -3 16 -2 19 1 4 3 -2 6 -13 5 -11 0 -14 -3 -6 -6z"/>
<path d="M1420 660 c0 -5 7 -7 15 -4 8 4 15 8 15 10 0 2 -7 4 -15 4 -8 0 -15
-4 -15 -10z"/>
<path d="M1480 660 c0 -5 7 -7 15 -4 8 4 15 8 15 10 0 2 -7 4 -15 4 -8 0 -15
-4 -15 -10z"/>
<path d="M1298 633 c7 -3 16 -2 19 1 4 3 -2 6 -13 5 -11 0 -14 -3 -6 -6z"/>
<path d="M1410 630 c0 -5 7 -10 15 -10 8 0 15 5 15 10 0 6 -7 10 -15 10 -8 0
-15 -4 -15 -10z"/>
<path d="M1730 630 c0 -5 5 -10 10 -10 6 0 10 5 10 10 0 6 -4 10 -10 10 -5 0
-10 -4 -10 -10z"/>
<path d="M1478 623 c6 -2 18 -2 25 0 6 3 1 5 -13 5 -14 0 -19 -2 -12 -5z"/>
<path d="M1355 600 c-3 -5 1 -10 10 -10 9 0 13 5 10 10 -3 6 -8 10 -10 10 -2
0 -7 -4 -10 -10z"/>
<path d="M1400 590 c0 -5 6 -10 14 -10 8 0 18 5 21 10 3 6 -3 10 -14 10 -12 0
-21 -4 -21 -10z"/>
<path d="M1470 590 c0 -5 7 -10 15 -10 8 0 15 5 15 10 0 6 -7 10 -15 10 -8 0
-15 -4 -15 -10z"/>
<path d="M1728 593 c7 -3 16 -2 19 1 4 3 -2 6 -13 5 -11 0 -14 -3 -6 -6z"/>
<path d="M1345 560 c-3 -5 1 -10 9 -10 9 0 16 5 16 10 0 6 -4 10 -9 10 -6 0
-13 -4 -16 -10z"/>
<path d="M1715 560 c-3 -5 1 -10 10 -10 9 0 13 5 10 10 -3 6 -8 10 -10 10 -2
0 -7 -4 -10 -10z"/>
<path d="M1408 553 c7 -3 16 -2 19 1 4 3 -2 6 -13 5 -11 0 -14 -3 -6 -6z"/>
<path d="M1468 553 c7 -3 16 -2 19 1 4 3 -2 6 -13 5 -11 0 -14 -3 -6 -6z"/>
<path d="M4100 1310 c0 -5 9 -10 20 -10 11 0 20 5 20 10 0 6 -9 10 -20 10 -11
0 -20 -4 -20 -10z"/>
<path d="M4030 1270 c0 -5 9 -10 20 -10 11 0 20 5 20 10 0 6 -9 10 -20 10 -11
0 -20 -4 -20 -10z"/>
<path d="M3957 1244 c-10 -11 3 -24 24 -24 23 0 25 15 3 24 -19 7 -19 7 -27 0z"/>
<path d="M3890 1200 c-12 -8 -11 -10 8 -10 12 0 22 5 22 10 0 13 -11 13 -30 0z"/>
<path d="M3820 1160 c0 -5 9 -10 20 -10 11 0 20 5 20 10 0 6 -9 10 -20 10 -11
0 -20 -4 -20 -10z"/>
<path d="M3885 1160 c-3 -5 3 -10 14 -10 11 0 23 5 26 10 3 6 -3 10 -14 10
-11 0 -23 -4 -26 -10z"/>
<path d="M1034 1322 c3 -6 0 -13 -6 -16 -7 -3 -4 -5 6 -3 21 2 25 19 5 26 -6
2 -9 -1 -5 -7z"/>
<path d="M983 1273 c9 -2 25 -2 35 0 9 3 1 5 -18 5 -19 0 -27 -2 -17 -5z"/>
<path d="M1838 1268 c9 -9 15 -9 24 0 9 9 7 12 -12 12 -19 0 -21 -3 -12 -12z"/>
<path d="M1192 1210 c0 -14 2 -19 5 -12 2 6 2 18 0 25 -3 6 -5 1 -5 -13z"/>
<path d="M1575 1190 c3 -5 10 -10 16 -10 5 0 9 5 9 10 0 6 -7 10 -16 10 -8 0
-12 -4 -9 -10z"/>
<path d="M1505 1160 c3 -5 12 -7 20 -3 21 7 19 13 -6 13 -11 0 -18 -4 -14 -10z"/>
<path d="M1560 1160 c0 -5 9 -10 20 -10 11 0 20 5 20 10 0 6 -9 10 -20 10 -11
0 -20 -4 -20 -10z"/>
<path d="M1445 1130 c-3 -5 1 -10 9 -10 9 0 16 5 16 10 0 6 -4 10 -9 10 -6 0
-13 -4 -16 -10z"/>
<path d="M1508 1123 c7 -3 16 -2 19 1 4 3 -2 6 -13 5 -11 0 -14 -3 -6 -6z"/>
<path d="M1565 1120 c4 -6 11 -8 16 -5 14 9 11 15 -7 15 -8 0 -12 -5 -9 -10z"/>
<path d="M1430 1090 c0 -5 7 -10 15 -10 8 0 15 5 15 10 0 6 -7 10 -15 10 -8 0
-15 -4 -15 -10z"/>
<path d="M1490 1090 c0 -5 7 -10 15 -10 8 0 15 5 15 10 0 6 -7 10 -15 10 -8 0
-15 -4 -15 -10z"/>
<path d="M1360 1060 c0 -5 9 -10 20 -10 11 0 20 5 20 10 0 6 -9 10 -20 10 -11
0 -20 -4 -20 -10z"/>
<path d="M1420 1060 c0 -5 9 -10 21 -10 11 0 17 5 14 10 -3 6 -13 10 -21 10
-8 0 -14 -4 -14 -10z"/>
<path d="M1485 1060 c-4 -6 3 -10 14 -10 25 0 27 6 6 13 -8 4 -17 2 -20 -3z"/>
<path d="M1305 1030 c-3 -5 1 -10 10 -10 9 0 13 5 10 10 -3 6 -8 10 -10 10 -2
0 -7 -4 -10 -10z"/>
<path d="M1368 1023 c7 -3 16 -2 19 1 4 3 -2 6 -13 5 -11 0 -14 -3 -6 -6z"/>
<path d="M1420 1020 c0 -5 7 -10 15 -10 8 0 15 5 15 10 0 6 -7 10 -15 10 -8 0
-15 -4 -15 -10z"/>
<path d="M1480 1020 c0 -5 7 -10 15 -10 8 0 15 5 15 10 0 6 -7 10 -15 10 -8 0
-15 -4 -15 -10z"/>
<path d="M1298 993 c6 -2 18 -2 25 0 6 3 1 5 -13 5 -14 0 -19 -2 -12 -5z"/>
<path d="M2634 1053 c3 -19 16 -28 16 -10 0 8 6 17 13 20 6 3 2 5 -9 4 -12 -1
-21 -7 -20 -14z"/>
<path d="M2206 1101 c-4 -5 3 -7 14 -4 23 6 26 13 6 13 -8 0 -17 -4 -20 -9z"/>
<path d="M935 940 c-3 -5 -1 -10 4 -10 6 0 11 5 11 10 0 6 -2 10 -4 10 -3 0
-8 -4 -11 -10z"/>
<path d="M988 903 c7 -3 16 -2 19 1 4 3 -2 6 -13 5 -11 0 -14 -3 -6 -6z"/>
<path d="M1040 900 c0 -6 7 -10 15 -10 8 0 15 2 15 4 0 2 -7 6 -15 10 -8 3
-15 1 -15 -4z"/>
<path d="M978 863 c7 -3 16 -2 19 1 4 3 -2 6 -13 5 -11 0 -14 -3 -6 -6z"/>
<path d="M1038 863 c7 -3 16 -2 19 1 4 3 -2 6 -13 5 -11 0 -14 -3 -6 -6z"/>
<path d="M858 833 c7 -3 16 -2 19 1 4 3 -2 6 -13 5 -11 0 -14 -3 -6 -6z"/>
<path d="M918 833 c7 -3 16 -2 19 1 4 3 -2 6 -13 5 -11 0 -14 -3 -6 -6z"/>
<path d="M970 830 c0 -5 4 -10 9 -10 6 0 13 5 16 10 3 6 -1 10 -9 10 -9 0 -16
-4 -16 -10z"/>
<path d="M848 798 c9 -9 15 -9 24 0 9 9 7 12 -12 12 -19 0 -21 -3 -12 -12z"/>
<path d="M905 800 c-3 -5 1 -10 9 -10 9 0 16 5 16 10 0 6 -4 10 -9 10 -6 0
-13 -4 -16 -10z"/>
<path d="M968 793 c7 -3 16 -2 19 1 4 3 -2 6 -13 5 -11 0 -14 -3 -6 -6z"/>
<path d="M1028 793 c7 -3 16 -2 19 1 4 3 -2 6 -13 5 -11 0 -14 -3 -6 -6z"/>
<path d="M908 763 c7 -3 16 -2 19 1 4 3 -2 6 -13 5 -11 0 -14 -3 -6 -6z"/>
<path d="M955 760 c-3 -5 1 -10 9 -10 9 0 16 5 16 10 0 6 -4 10 -9 10 -6 0
-13 -4 -16 -10z"/>
<path d="M1020 760 c0 -5 5 -10 10 -10 6 0 10 5 10 10 0 6 -4 10 -10 10 -5 0
-10 -4 -10 -10z"/>
<path d="M1075 750 c3 -5 12 -7 20 -3 21 7 19 13 -6 13 -11 0 -18 -4 -14 -10z"/>
<path d="M1070 720 c0 -5 7 -10 16 -10 8 0 12 5 9 10 -3 6 -10 10 -16 10 -5 0
-9 -4 -9 -10z"/>
<path d="M1065 680 c3 -5 10 -10 16 -10 5 0 9 5 9 10 0 6 -7 10 -16 10 -8 0
-12 -4 -9 -10z"/>
<path d="M1285 920 c4 -6 11 -8 16 -5 14 9 11 15 -7 15 -8 0 -12 -5 -9 -10z"/>
<path d="M1340 920 c0 -5 7 -10 15 -10 8 0 15 5 15 10 0 6 -7 10 -15 10 -8 0
-15 -4 -15 -10z"/>
<path d="M1408 913 c7 -3 16 -2 19 1 4 3 -2 6 -13 5 -11 0 -14 -3 -6 -6z"/>
<path d="M1278 883 c6 -2 18 -2 25 0 6 3 1 5 -13 5 -14 0 -19 -2 -12 -5z"/>
<path d="M1335 880 c3 -5 12 -7 20 -3 21 7 19 13 -6 13 -11 0 -18 -4 -14 -10z"/>
<path d="M1390 880 c0 -5 6 -10 14 -10 8 0 18 5 21 10 3 6 -3 10 -14 10 -12 0
-21 -4 -21 -10z"/>
<path d="M1275 850 c4 -6 11 -8 16 -5 14 9 11 15 -7 15 -8 0 -12 -5 -9 -10z"/>
<path d="M1330 850 c0 -5 7 -10 15 -10 8 0 15 5 15 10 0 6 -7 10 -15 10 -8 0
-15 -4 -15 -10z"/>
<path d="M1268 813 c7 -3 16 -2 19 1 4 3 -2 6 -13 5 -11 0 -14 -3 -6 -6z"/>
<path d="M1328 813 c7 -3 16 -2 19 1 4 3 -2 6 -13 5 -11 0 -14 -3 -6 -6z"/>
<path d="M1260 780 c0 -5 5 -10 10 -10 6 0 10 5 10 10 0 6 -4 10 -10 10 -5 0
-10 -4 -10 -10z"/>
<path d="M4572 908 c7 -19 45 -21 51 -4 5 12 -1 16 -24 16 -20 0 -29 -4 -27
-12z"/>
<path d="M4430 875 c0 -11 7 -15 23 -13 12 2 22 8 22 13 0 6 -10 11 -22 13
-16 2 -23 -2 -23 -13z"/>
<path d="M4580 870 c0 -5 6 -10 14 -10 8 0 18 5 21 10 3 6 -3 10 -14 10 -12 0
-21 -4 -21 -10z"/>
<path d="M4505 840 c-8 -13 20 -24 36 -15 8 6 7 10 -2 16 -18 11 -26 11 -34
-1z"/>
<path d="M4580 830 c0 -5 6 -10 14 -10 8 0 18 5 21 10 3 6 -3 10 -14 10 -12 0
-21 -4 -21 -10z"/>
<path d="M778 373 c7 -3 16 -2 19 1 4 3 -2 6 -13 5 -11 0 -14 -3 -6 -6z"/>
<path d="M885 330 c4 -6 11 -8 16 -5 14 9 11 15 -7 15 -8 0 -12 -5 -9 -10z"/>
<path d="M2912 758 c-15 -15 2 -38 28 -38 22 0 44 25 35 40 -8 14 -48 13 -63
-2z m53 -8 c3 -5 -3 -10 -15 -10 -12 0 -18 5 -15 10 3 6 10 10 15 10 5 0 12
-4 15 -10z"/>
<path d="M4285 730 c-3 -5 3 -10 14 -10 12 0 21 5 21 10 0 6 -6 10 -14 10 -8
0 -18 -4 -21 -10z"/>
<path d="M4285 690 c-3 -5 3 -10 15 -10 12 0 18 5 15 10 -3 6 -10 10 -15 10
-5 0 -12 -4 -15 -10z"/>
<path d="M4357 694 c-13 -13 -7 -24 14 -24 11 0 19 5 17 12 -5 14 -22 21 -31
12z"/>
<path d="M4425 680 c3 -5 15 -10 26 -10 10 0 19 5 19 10 0 6 -12 10 -26 10
-14 0 -23 -4 -19 -10z"/>
<path d="M4425 640 c3 -5 13 -10 21 -10 8 0 14 5 14 10 0 6 -9 10 -21 10 -11
0 -17 -4 -14 -10z"/>
<path d="M4495 640 c3 -5 12 -10 20 -10 8 0 17 5 20 10 4 6 -5 10 -20 10 -15
0 -24 -4 -20 -10z"/>
<path d="M885 690 c3 -5 10 -10 16 -10 5 0 9 5 9 10 0 6 -7 10 -16 10 -8 0
-12 -4 -9 -10z"/>
<path d="M948 653 c7 -3 16 -2 19 1 4 3 -2 6 -13 5 -11 0 -14 -3 -6 -6z"/>
<path d="M930 620 c0 -5 7 -10 15 -10 8 0 15 5 15 10 0 6 -7 10 -15 10 -8 0
-15 -4 -15 -10z"/>
<path d="M998 613 c7 -3 16 -2 19 1 4 3 -2 6 -13 5 -11 0 -14 -3 -6 -6z"/>
<path d="M4955 590 c-3 -5 1 -10 10 -10 9 0 13 5 10 10 -3 6 -8 10 -10 10 -2
0 -7 -4 -10 -10z"/>
<path d="M4880 550 c0 -5 7 -10 16 -10 8 0 12 5 9 10 -3 6 -10 10 -16 10 -5 0
-9 -4 -9 -10z"/>
<path d="M4950 550 c0 -5 7 -10 16 -10 8 0 12 5 9 10 -3 6 -10 10 -16 10 -5 0
-9 -4 -9 -10z"/>
<path d="M4950 510 c0 -5 7 -10 16 -10 8 0 12 5 9 10 -3 6 -10 10 -16 10 -5 0
-9 -4 -9 -10z"/>
<path d="M1215 530 c-3 -5 1 -10 9 -10 9 0 16 5 16 10 0 6 -4 10 -9 10 -6 0
-13 -4 -16 -10z"/>
<path d="M1218 493 c7 -3 16 -2 19 1 4 3 -2 6 -13 5 -11 0 -14 -3 -6 -6z"/>
<path d="M1035 540 c3 -5 10 -10 16 -10 5 0 9 5 9 10 0 6 -7 10 -16 10 -8 0
-12 -4 -9 -10z"/>
<path d="M1038 503 c7 -3 16 -2 19 1 4 3 -2 6 -13 5 -11 0 -14 -3 -6 -6z"/>
<path d="M3510 480 c0 -5 7 -10 15 -10 8 0 15 5 15 10 0 6 -7 10 -15 10 -8 0
-15 -4 -15 -10z"/>
<path d="M3440 440 c0 -5 6 -10 14 -10 8 0 18 5 21 10 3 6 -3 10 -14 10 -12 0
-21 -4 -21 -10z"/>
<path d="M3510 440 c0 -5 7 -10 15 -10 8 0 15 5 15 10 0 6 -7 10 -15 10 -8 0
-15 -4 -15 -10z"/>
<path d="M3445 410 c-3 -5 1 -10 10 -10 9 0 13 5 10 10 -3 6 -8 10 -10 10 -2
0 -7 -4 -10 -10z"/>
<path d="M3510 400 c0 -5 7 -10 15 -10 8 0 15 5 15 10 0 6 -7 10 -15 10 -8 0
-15 -4 -15 -10z"/>
<path d="M3445 370 c-3 -5 1 -10 9 -10 9 0 16 5 16 10 0 6 -4 10 -9 10 -6 0
-13 -4 -16 -10z"/>
<path d="M3510 360 c0 -5 4 -10 9 -10 6 0 13 5 16 10 3 6 -1 10 -9 10 -9 0
-16 -4 -16 -10z"/>
<path d="M3440 330 c0 -5 7 -10 15 -10 8 0 15 5 15 10 0 6 -7 10 -15 10 -8 0
-15 -4 -15 -10z"/>
<path d="M3510 325 c0 -9 6 -12 15 -9 8 4 12 10 9 15 -8 14 -24 10 -24 -6z"/>
<path d="M3430 250 c0 -5 9 -10 20 -10 11 0 20 5 20 10 0 6 -9 10 -20 10 -11
0 -20 -4 -20 -10z"/>
<path d="M3505 250 c3 -5 10 -10 16 -10 5 0 9 5 9 10 0 6 -7 10 -16 10 -8 0
-12 -4 -9 -10z"/>
<path d="M3438 213 c6 -2 18 -2 25 0 6 3 1 5 -13 5 -14 0 -19 -2 -12 -5z"/>
<path d="M3938 543 c6 -2 18 -2 25 0 6 3 1 5 -13 5 -14 0 -19 -2 -12 -5z"/>
<path d="M4000 540 c0 -5 6 -10 14 -10 8 0 18 5 21 10 3 6 -3 10 -14 10 -12 0
-21 -4 -21 -10z"/>
<path d="M4070 540 c0 -5 7 -10 15 -10 8 0 15 5 15 10 0 6 -7 10 -15 10 -8 0
-15 -4 -15 -10z"/>
<path d="M4280 530 c0 -5 7 -10 15 -10 8 0 15 5 15 10 0 6 -7 10 -15 10 -8 0
-15 -4 -15 -10z"/>
<path d="M3930 500 c0 -5 7 -10 15 -10 8 0 15 5 15 10 0 6 -7 10 -15 10 -8 0
-15 -4 -15 -10z"/>
<path d="M4000 500 c0 -5 7 -10 15 -10 8 0 15 5 15 10 0 6 -7 10 -15 10 -8 0
-15 -4 -15 -10z"/>
<path d="M4070 500 c0 -5 7 -10 15 -10 8 0 15 5 15 10 0 6 -7 10 -15 10 -8 0
-15 -4 -15 -10z"/>
<path d="M4280 490 c0 -5 7 -10 15 -10 8 0 15 5 15 10 0 6 -7 10 -15 10 -8 0
-15 -4 -15 -10z"/>
<path d="M4350 490 c0 -5 9 -10 20 -10 11 0 20 5 20 10 0 6 -9 10 -20 10 -11
0 -20 -4 -20 -10z"/>
<path d="M3995 460 c3 -5 13 -10 21 -10 8 0 14 5 14 10 0 6 -9 10 -21 10 -11
0 -17 -4 -14 -10z"/>
<path d="M4070 460 c0 -5 7 -10 15 -10 8 0 15 5 15 10 0 6 -7 10 -15 10 -8 0
-15 -4 -15 -10z"/>
<path d="M4275 450 c3 -5 13 -10 21 -10 8 0 14 5 14 10 0 6 -9 10 -21 10 -11
0 -17 -4 -14 -10z"/>
<path d="M4345 450 c3 -5 12 -10 20 -10 8 0 17 5 20 10 4 6 -5 10 -20 10 -15
0 -24 -4 -20 -10z"/>
<path d="M4420 450 c0 -5 7 -10 15 -10 8 0 15 5 15 10 0 6 -7 10 -15 10 -8 0
-15 -4 -15 -10z"/>
<path d="M4075 420 c4 -6 11 -8 16 -5 14 9 11 15 -7 15 -8 0 -12 -5 -9 -10z"/>
<path d="M4276 423 c-12 -12 -5 -23 14 -23 11 0 20 4 20 9 0 11 -26 22 -34 14z"/>
<path d="M4340 410 c0 -5 9 -10 20 -10 11 0 20 5 20 10 0 6 -9 10 -20 10 -11
0 -20 -4 -20 -10z"/>
<path d="M4420 410 c0 -5 7 -10 15 -10 8 0 15 5 15 10 0 6 -7 10 -15 10 -8 0
-15 -4 -15 -10z"/>
<path d="M4490 410 c0 -5 7 -10 15 -10 8 0 15 5 15 10 0 6 -7 10 -15 10 -8 0
-15 -4 -15 -10z"/>
<path d="M4275 379 c-10 -15 1 -23 20 -15 9 3 13 10 10 16 -8 13 -22 13 -30
-1z"/>
<path d="M4345 370 c3 -5 13 -10 21 -10 8 0 14 5 14 10 0 6 -9 10 -21 10 -11
0 -17 -4 -14 -10z"/>
<path d="M4415 370 c3 -5 13 -10 21 -10 8 0 14 5 14 10 0 6 -9 10 -21 10 -11
0 -17 -4 -14 -10z"/>
<path d="M4490 370 c0 -5 7 -10 15 -10 8 0 15 5 15 10 0 6 -7 10 -15 10 -8 0
-15 -4 -15 -10z"/>
<path d="M4560 365 c0 -8 6 -15 14 -15 22 0 28 17 10 24 -22 9 -24 8 -24 -9z"/>
<path d="M4270 335 c0 -10 7 -15 18 -13 21 4 19 22 -2 26 -10 2 -16 -3 -16
-13z"/>
<path d="M4348 328 c9 -9 15 -9 24 0 9 9 7 12 -12 12 -19 0 -21 -3 -12 -12z"/>
<path d="M4410 330 c0 -5 9 -10 20 -10 11 0 20 5 20 10 0 6 -9 10 -20 10 -11
0 -20 -4 -20 -10z"/>
<path d="M4490 330 c0 -5 7 -10 15 -10 8 0 15 5 15 10 0 6 -7 10 -15 10 -8 0
-15 -4 -15 -10z"/>
<path d="M4555 330 c-3 -5 3 -10 14 -10 12 0 21 5 21 10 0 6 -6 10 -14 10 -8
0 -18 -4 -21 -10z"/>
<path d="M4410 290 c0 -5 9 -10 20 -10 11 0 20 5 20 10 0 6 -9 10 -20 10 -11
0 -20 -4 -20 -10z"/>
<path d="M4480 290 c0 -5 9 -10 20 -10 11 0 20 5 20 10 0 6 -9 10 -20 10 -11
0 -20 -4 -20 -10z"/>
<path d="M4555 290 c-3 -5 3 -10 14 -10 12 0 21 5 21 10 0 6 -6 10 -14 10 -8
0 -18 -4 -21 -10z"/>
<path d="M4550 250 c0 -5 9 -10 20 -10 11 0 20 5 20 10 0 6 -9 10 -20 10 -11
0 -20 -4 -20 -10z"/>
<path d="M4560 480 c0 -5 9 -10 20 -10 11 0 20 5 20 10 0 6 -9 10 -20 10 -11
0 -20 -4 -20 -10z"/>
<path d="M4865 270 c4 -6 11 -8 16 -5 14 9 11 15 -7 15 -8 0 -12 -5 -9 -10z"/>
<path d="M4870 430 c0 -5 7 -10 15 -10 8 0 15 5 15 10 0 6 -7 10 -15 10 -8 0
-15 -4 -15 -10z"/>
<path d="M4870 390 c0 -5 7 -10 15 -10 8 0 15 5 15 10 0 6 -7 10 -15 10 -8 0
-15 -4 -15 -10z"/>
<path d="M4940 390 c0 -5 7 -10 15 -10 8 0 15 5 15 10 0 6 -7 10 -15 10 -8 0
-15 -4 -15 -10z"/>
<path d="M4940 350 c0 -5 7 -10 15 -10 8 0 15 5 15 10 0 6 -7 10 -15 10 -8 0
-15 -4 -15 -10z"/>
<path d="M1325 450 c3 -5 10 -10 16 -10 5 0 9 5 9 10 0 6 -7 10 -16 10 -8 0
-12 -4 -9 -10z"/>
<path d="M1448 443 c7 -3 16 -2 19 1 4 3 -2 6 -13 5 -11 0 -14 -3 -6 -6z"/>
<path d="M1265 420 c-3 -5 -1 -10 4 -10 6 0 11 5 11 10 0 6 -2 10 -4 10 -3 0
-8 -4 -11 -10z"/>
<path d="M1328 413 c7 -3 16 -2 19 1 4 3 -2 6 -13 5 -11 0 -14 -3 -6 -6z"/>
<path d="M1388 413 c7 -3 16 -2 19 1 4 3 -2 6 -13 5 -11 0 -14 -3 -6 -6z"/>
<path d="M1695 410 c3 -5 8 -10 11 -10 2 0 4 5 4 10 0 6 -5 10 -11 10 -5 0 -7
-4 -4 -10z"/>
<path d="M1448 403 c7 -3 16 -2 19 1 4 3 -2 6 -13 5 -11 0 -14 -3 -6 -6z"/>
<path d="M1758 403 c7 -3 16 -2 19 1 4 3 -2 6 -13 5 -11 0 -14 -3 -6 -6z"/>
<path d="M1250 380 c0 -5 7 -10 15 -10 8 0 15 5 15 10 0 6 -7 10 -15 10 -8 0
-15 -4 -15 -10z"/>
<path d="M1315 380 c-3 -5 1 -10 10 -10 9 0 13 5 10 10 -3 6 -8 10 -10 10 -2
0 -7 -4 -10 -10z"/>
<path d="M1378 373 c7 -3 16 -2 19 1 4 3 -2 6 -13 5 -11 0 -14 -3 -6 -6z"/>
<path d="M1435 370 c4 -6 11 -8 16 -5 14 9 11 15 -7 15 -8 0 -12 -5 -9 -10z"/>
<path d="M1688 373 c7 -3 16 -2 19 1 4 3 -2 6 -13 5 -11 0 -14 -3 -6 -6z"/>
<path d="M1740 370 c0 -5 7 -10 15 -10 8 0 15 5 15 10 0 6 -7 10 -15 10 -8 0
-15 -4 -15 -10z"/>
<path d="M1240 340 c0 -5 4 -10 9 -10 6 0 13 5 16 10 3 6 -1 10 -9 10 -9 0
-16 -4 -16 -10z"/>
<path d="M1310 339 c0 -5 5 -7 10 -4 6 3 10 8 10 11 0 2 -4 4 -10 4 -5 0 -10
-5 -10 -11z"/>
<path d="M1365 340 c-3 -5 1 -10 9 -10 9 0 16 5 16 10 0 6 -4 10 -9 10 -6 0
-13 -4 -16 -10z"/>
<path d="M1675 340 c-3 -5 1 -10 10 -10 9 0 13 5 10 10 -3 6 -8 10 -10 10 -2
0 -7 -4 -10 -10z"/>
<path d="M1428 333 c6 -2 18 -2 25 0 6 3 1 5 -13 5 -14 0 -19 -2 -12 -5z"/>
<path d="M1748 333 c7 -3 16 -2 19 1 4 3 -2 6 -13 5 -11 0 -14 -3 -6 -6z"/>
<path d="M1298 303 c6 -2 18 -2 25 0 6 3 1 5 -13 5 -14 0 -19 -2 -12 -5z"/>
<path d="M1670 300 c0 -5 5 -10 10 -10 6 0 10 5 10 10 0 6 -4 10 -10 10 -5 0
-10 -4 -10 -10z"/>
<path d="M1738 293 c7 -3 16 -2 19 1 4 3 -2 6 -13 5 -11 0 -14 -3 -6 -6z"/>
<path d="M3860 430 c0 -5 7 -10 16 -10 8 0 12 5 9 10 -3 6 -10 10 -16 10 -5 0
-9 -4 -9 -10z"/>
<path d="M3860 390 c0 -5 4 -10 9 -10 6 0 13 5 16 10 3 6 -1 10 -9 10 -9 0
-16 -4 -16 -10z"/>
<path d="M3925 390 c-3 -5 3 -10 15 -10 12 0 18 5 15 10 -3 6 -10 10 -15 10
-5 0 -12 -4 -15 -10z"/>
<path d="M4008 383 c7 -3 16 -2 19 1 4 3 -2 6 -13 5 -11 0 -14 -3 -6 -6z"/>
<path d="M3798 353 c7 -3 16 -2 19 1 4 3 -2 6 -13 5 -11 0 -14 -3 -6 -6z"/>
<path d="M3865 350 c4 -6 11 -8 16 -5 14 9 11 15 -7 15 -8 0 -12 -5 -9 -10z"/>
<path d="M3920 350 c0 -5 7 -10 15 -10 8 0 15 5 15 10 0 6 -7 10 -15 10 -8 0
-15 -4 -15 -10z"/>
<path d="M3995 350 c-4 -6 3 -10 14 -10 25 0 27 6 6 13 -8 4 -17 2 -20 -3z"/>
<path d="M4068 343 c6 -2 18 -2 25 0 6 3 1 5 -13 5 -14 0 -19 -2 -12 -5z"/>
<path d="M3858 313 c6 -2 18 -2 25 0 6 3 1 5 -13 5 -14 0 -19 -2 -12 -5z"/>
<path d="M3920 310 c0 -5 7 -10 15 -10 8 0 15 5 15 10 0 6 -7 10 -15 10 -8 0
-15 -4 -15 -10z"/>
<path d="M3990 310 c0 -5 9 -10 21 -10 11 0 17 5 14 10 -3 6 -13 10 -21 10 -8
0 -14 -4 -14 -10z"/>
<path d="M4068 303 c6 -2 18 -2 25 0 6 3 1 5 -13 5 -14 0 -19 -2 -12 -5z"/>
<path d="M3855 270 c4 -6 11 -8 16 -5 14 9 11 15 -7 15 -8 0 -12 -5 -9 -10z"/>
<path d="M3920 270 c0 -5 9 -10 20 -10 11 0 20 5 20 10 0 6 -9 10 -20 10 -11
0 -20 -4 -20 -10z"/>
<path d="M3990 270 c0 -5 9 -10 20 -10 11 0 20 5 20 10 0 6 -9 10 -20 10 -11
0 -20 -4 -20 -10z"/>
<path d="M4060 270 c0 -5 9 -10 21 -10 11 0 17 5 14 10 -3 6 -13 10 -21 10 -8
0 -14 -4 -14 -10z"/>
<path d="M3915 230 c3 -5 15 -10 26 -10 10 0 19 5 19 10 0 6 -12 10 -26 10
-14 0 -23 -4 -19 -10z"/>
<path d="M3985 230 c3 -5 13 -10 21 -10 8 0 14 5 14 10 0 6 -9 10 -21 10 -11
0 -17 -4 -14 -10z"/>
<path d="M4060 230 c0 -5 7 -10 15 -10 8 0 15 5 15 10 0 6 -7 10 -15 10 -8 0
-15 -4 -15 -10z"/>
<path d="M3920 195 c0 -8 7 -15 15 -15 8 0 15 4 15 9 0 5 -7 11 -15 15 -9 3
-15 0 -15 -9z"/>
<path d="M3985 190 c3 -5 12 -10 20 -10 8 0 17 5 20 10 4 6 -5 10 -20 10 -15
0 -24 -4 -20 -10z"/>
<path d="M4050 191 c0 -11 26 -22 34 -14 12 12 5 23 -14 23 -11 0 -20 -4 -20
-9z"/>
<path d="M3928 153 c7 -3 16 -2 19 1 4 3 -2 6 -13 5 -11 0 -14 -3 -6 -6z"/>
<path d="M3980 150 c0 -5 9 -10 20 -10 11 0 20 5 20 10 0 6 -9 10 -20 10 -11
0 -20 -4 -20 -10z"/>
<path d="M2211 139 c-13 -11 -21 -22 -19 -25 3 -3 18 6 33 20 33 30 21 35 -14
5z"/>
<path d="M2770 2320 c0 -19 7 -20 135 -20 128 0 135 1 135 20 0 19 -7 20 -135
20 -128 0 -135 -1 -135 -20z"/>
<path d="M5500 2320 c0 -19 7 -20 110 -20 l110 0 0 -115 0 -115 25 0 25 0 0
135 0 135 -135 0 c-128 0 -135 -1 -135 -20z"/>
<path d="M1628 1853 c7 -3 16 -2 19 1 4 3 -2 6 -13 5 -11 0 -14 -3 -6 -6z"/>
<path d="M1607 1760 c3 -11 9 -17 14 -15 10 7 1 35 -11 35 -5 0 -6 -9 -3 -20z"/>
<path d="M1488 1753 c7 -3 16 -2 19 1 4 3 -2 6 -13 5 -11 0 -14 -3 -6 -6z"/>
<path d="M1548 1753 c7 -3 16 -2 19 1 4 3 -2 6 -13 5 -11 0 -14 -3 -6 -6z"/>
<path d="M1598 1713 c6 -2 18 -2 25 0 6 3 1 5 -13 5 -14 0 -19 -2 -12 -5z"/>
<path d="M1658 1713 c7 -3 16 -2 19 1 4 3 -2 6 -13 5 -11 0 -14 -3 -6 -6z"/>
<path d="M23 1625 c0 -44 2 -61 4 -37 2 23 2 59 0 80 -2 20 -4 1 -4 -43z"/>
<path d="M24 1415 c0 -66 1 -92 3 -57 2 34 2 88 0 120 -2 31 -3 3 -3 -63z"/>
<path d="M145 1299 c-4 -6 -5 -12 -2 -15 2 -3 7 2 10 11 7 17 1 20 -8 4z"/>
<path d="M40 1145 c0 -128 1 -135 20 -135 19 0 20 7 20 135 0 128 -1 135 -20
135 -19 0 -20 -7 -20 -135z"/>
<path d="M5720 1145 l0 -135 25 0 25 0 0 135 0 135 -25 0 -25 0 0 -135z"/>
<path d="M0 1150 c0 -33 4 -60 10 -60 6 0 10 27 10 60 0 33 -4 60 -10 60 -6 0
-10 -27 -10 -60z"/>
<path d="M22 938 l2 -63 3 58 c3 39 8 55 15 51 7 -4 8 -3 4 4 -17 27 -26 8
-24 -50z"/>
<path d="M24 735 c0 -71 1 -99 3 -62 2 37 2 96 0 130 -2 34 -3 4 -3 -68z"/>
<path d="M23 540 c0 -36 2 -50 4 -32 2 17 2 47 0 65 -2 17 -4 3 -4 -33z"/>
<path d="M22 358 c-1 -65 1 -118 6 -118 4 0 6 37 4 82 -4 143 -9 157 -10 36z"/>
<path d="M818 263 c7 -3 16 -2 19 1 4 3 -2 6 -13 5 -11 0 -14 -3 -6 -6z"/>
<path d="M875 260 c-3 -5 -1 -10 4 -10 6 0 11 5 11 10 0 6 -2 10 -4 10 -3 0
-8 -4 -11 -10z"/>
<path d="M1410 260 c0 -5 7 -10 15 -10 8 0 15 5 15 10 0 6 -7 10 -15 10 -8 0
-15 -4 -15 -10z"/>
<path d="M4270 260 c0 -5 7 -10 15 -10 8 0 15 5 15 10 0 6 -7 10 -15 10 -8 0
-15 -4 -15 -10z"/>
<path d="M1288 228 c9 -9 15 -9 24 0 9 9 7 12 -12 12 -19 0 -21 -3 -12 -12z"/>
<path d="M1355 230 c-3 -5 1 -10 10 -10 9 0 13 5 10 10 -3 6 -8 10 -10 10 -2
0 -7 -4 -10 -10z"/>
<path d="M40 115 c0 -108 1 -115 20 -115 19 0 20 7 20 115 0 108 -1 115 -20
115 -19 0 -20 -7 -20 -115z"/>
<path d="M865 220 c4 -6 11 -8 16 -5 14 9 11 15 -7 15 -8 0 -12 -5 -9 -10z"/>
<path d="M1410 220 c0 -5 4 -10 9 -10 6 0 13 5 16 10 3 6 -1 10 -9 10 -9 0
-16 -4 -16 -10z"/>
<path d="M4270 220 c0 -5 7 -10 15 -10 8 0 15 5 15 10 0 6 -7 10 -15 10 -8 0
-15 -4 -15 -10z"/>
<path d="M4343 218 c2 -7 10 -13 17 -13 7 0 15 6 18 13 2 7 -5 12 -18 12 -13
0 -20 -5 -17 -12z"/>
<path d="M5720 115 l0 -115 25 0 25 0 0 115 0 115 -25 0 -25 0 0 -115z"/>
<path d="M805 190 c4 -6 11 -8 16 -5 14 9 11 15 -7 15 -8 0 -12 -5 -9 -10z"/>
<path d="M1280 190 c0 -5 4 -10 9 -10 6 0 13 5 16 10 3 6 -1 10 -9 10 -9 0
-16 -4 -16 -10z"/>
<path d="M1335 190 c-3 -5 1 -10 9 -10 8 0 18 5 21 10 3 6 -1 10 -9 10 -8 0
-18 -4 -21 -10z"/>
<path d="M1650 190 c0 -5 7 -10 15 -10 8 0 15 5 15 10 0 6 -7 10 -15 10 -8 0
-15 -4 -15 -10z"/>
<path d="M1408 183 c7 -3 16 -2 19 1 4 3 -2 6 -13 5 -11 0 -14 -3 -6 -6z"/>
<path d="M4265 180 c3 -5 13 -10 21 -10 8 0 14 5 14 10 0 6 -9 10 -21 10 -11
0 -17 -4 -14 -10z"/>
<path d="M4330 181 c0 -10 36 -21 44 -14 3 3 3 10 0 14 -7 12 -44 12 -44 0z"/>
<path d="M4407 184 c-13 -13 -7 -24 14 -24 11 0 19 5 17 12 -5 14 -22 21 -31
12z"/>
<path d="M1200 164 c0 -8 9 -14 19 -14 30 0 34 17 6 22 -17 4 -25 1 -25 -8z"/>
<path d="M4480 170 c0 -5 6 -10 14 -10 8 0 18 5 21 10 3 6 -3 10 -14 10 -12 0
-21 -4 -21 -10z"/>
<path d="M4550 170 c0 -5 6 -10 14 -10 8 0 18 5 21 10 3 6 -3 10 -14 10 -12 0
-21 -4 -21 -10z"/>
<path d="M1270 160 c0 -5 7 -10 15 -10 8 0 15 5 15 10 0 6 -7 10 -15 10 -8 0
-15 -4 -15 -10z"/>
<path d="M1338 153 c7 -3 16 -2 19 1 4 3 -2 6 -13 5 -11 0 -14 -3 -6 -6z"/>
<path d="M1400 150 c0 -5 5 -10 10 -10 6 0 10 5 10 10 0 6 -4 10 -10 10 -5 0
-10 -4 -10 -10z"/>
<path d="M1708 143 c7 -3 16 -2 19 1 4 3 -2 6 -13 5 -11 0 -14 -3 -6 -6z"/>
<path d="M4268 138 c9 -9 15 -9 24 0 9 9 7 12 -12 12 -19 0 -21 -3 -12 -12z"/>
<path d="M4330 140 c0 -5 9 -10 20 -10 11 0 20 5 20 10 0 6 -9 10 -20 10 -11
0 -20 -4 -20 -10z"/>
<path d="M4405 140 c-3 -5 3 -10 14 -10 12 0 21 5 21 10 0 6 -6 10 -14 10 -8
0 -18 -4 -21 -10z"/>
<path d="M3508 133 c7 -3 16 -2 19 1 4 3 -2 6 -13 5 -11 0 -14 -3 -6 -6z"/>
<path d="M4478 128 c9 -9 15 -9 24 0 9 9 7 12 -12 12 -19 0 -21 -3 -12 -12z"/>
<path d="M4545 130 c3 -5 13 -10 21 -10 8 0 14 5 14 10 0 6 -9 10 -21 10 -11
0 -17 -4 -14 -10z"/>
<path d="M1208 123 c6 -2 18 -2 25 0 6 3 1 5 -13 5 -14 0 -19 -2 -12 -5z"/>
<path d="M1275 120 c4 -6 11 -8 16 -5 14 9 11 15 -7 15 -8 0 -12 -5 -9 -10z"/>
<path d="M1338 113 c7 -3 16 -2 19 1 4 3 -2 6 -13 5 -11 0 -14 -3 -6 -6z"/>
<path d="M1390 110 c0 -5 7 -7 15 -4 8 4 15 8 15 10 0 2 -7 4 -15 4 -8 0 -15
-4 -15 -10z"/>
<path d="M1648 113 c7 -3 16 -2 19 1 4 3 -2 6 -13 5 -11 0 -14 -3 -6 -6z"/>
<path d="M1705 110 c-3 -5 -2 -10 4 -10 5 0 13 5 16 10 3 6 2 10 -4 10 -5 0
-13 -4 -16 -10z"/>
<path d="M4858 113 c6 -2 18 -2 25 0 6 3 1 5 -13 5 -14 0 -19 -2 -12 -5z"/>
<path d="M3430 100 c0 -5 7 -10 15 -10 8 0 15 5 15 10 0 6 -7 10 -15 10 -8 0
-15 -4 -15 -10z"/>
<path d="M3500 100 c0 -5 7 -10 16 -10 8 0 12 5 9 10 -3 6 -10 10 -16 10 -5 0
-9 -4 -9 -10z"/>
<path d="M4268 103 c6 -2 18 -2 25 0 6 3 1 5 -13 5 -14 0 -19 -2 -12 -5z"/>
<path d="M4330 100 c0 -5 9 -10 20 -10 11 0 20 5 20 10 0 6 -9 10 -20 10 -11
0 -20 -4 -20 -10z"/>
<path d="M4400 100 c0 -5 9 -10 20 -10 11 0 20 5 20 10 0 6 -9 10 -20 10 -11
0 -20 -4 -20 -10z"/>
<path d="M4476 103 c-11 -11 -6 -23 8 -23 8 0 17 4 20 9 7 10 -19 23 -28 14z"/>
<path d="M1140 90 c0 -5 7 -10 15 -10 8 0 15 5 15 10 0 6 -7 10 -15 10 -8 0
-15 -4 -15 -10z"/>
<path d="M1200 90 c0 -5 7 -10 15 -10 8 0 15 5 15 10 0 6 -7 10 -15 10 -8 0
-15 -4 -15 -10z"/>
<path d="M4545 90 c3 -5 13 -10 21 -10 8 0 14 5 14 10 0 6 -9 10 -21 10 -11 0
-17 -4 -14 -10z"/>
<path d="M1268 83 c7 -3 16 -2 19 1 4 3 -2 6 -13 5 -11 0 -14 -3 -6 -6z"/>
<path d="M1320 80 c0 -5 7 -10 15 -10 8 0 15 5 15 10 0 6 -7 10 -15 10 -8 0
-15 -4 -15 -10z"/>
<path d="M4855 80 c-3 -5 1 -10 9 -10 9 0 16 5 16 10 0 6 -4 10 -9 10 -6 0
-13 -4 -16 -10z"/>
<path d="M1388 73 c7 -3 16 -2 19 1 4 3 -2 6 -13 5 -11 0 -14 -3 -6 -6z"/>
<path d="M1638 73 c7 -3 16 -2 19 1 4 3 -2 6 -13 5 -11 0 -14 -3 -6 -6z"/>
<path d="M4925 70 c3 -5 12 -7 20 -3 21 7 19 13 -6 13 -11 0 -18 -4 -14 -10z"/>
<path d="M1125 60 c-4 -6 5 -10 20 -10 15 0 24 4 20 10 -3 6 -12 10 -20 10 -8
0 -17 -4 -20 -10z"/>
<path d="M4268 63 c6 -2 18 -2 25 0 6 3 1 5 -13 5 -14 0 -19 -2 -12 -5z"/>
<path d="M4330 60 c0 -13 27 -13 35 0 3 6 -3 10 -14 10 -12 0 -21 -4 -21 -10z"/>
<path d="M4400 62 c0 -14 11 -21 26 -15 21 8 17 23 -6 23 -11 0 -20 -4 -20 -8z"/>
<path d="M4472 58 c5 -15 28 -18 29 -3 0 6 -7 12 -17 13 -10 3 -15 -1 -12 -10z"/>
<path d="M157 53 c-4 -3 -7 -11 -7 -17 0 -6 5 -5 12 2 6 6 9 14 7 17 -3 3 -9
2 -12 -2z"/>
<path d="M1195 50 c4 -6 11 -8 16 -5 14 9 11 15 -7 15 -8 0 -12 -5 -9 -10z"/>
<path d="M1260 50 c-13 -8 -12 -10 3 -10 9 0 17 5 17 10 0 12 -1 12 -20 0z"/>
<path d="M4548 48 c9 -9 15 -9 24 0 9 9 7 12 -12 12 -19 0 -21 -3 -12 -12z"/>
<path d="M1375 40 c-3 -5 1 -10 9 -10 9 0 16 5 16 10 0 6 -4 10 -9 10 -6 0
-13 -4 -16 -10z"/>
<path d="M1630 40 c0 -5 5 -10 10 -10 6 0 10 5 10 10 0 6 -4 10 -10 10 -5 0
-10 -4 -10 -10z"/>
<path d="M4850 40 c0 -5 7 -10 15 -10 8 0 15 5 15 10 0 6 -7 10 -15 10 -8 0
-15 -4 -15 -10z"/>
<path d="M4925 40 c-4 -6 3 -10 14 -10 25 0 27 6 6 13 -8 4 -17 2 -20 -3z"/>
<path d="M1698 33 c7 -3 16 -2 19 1 4 3 -2 6 -13 5 -11 0 -14 -3 -6 -6z"/>
<path d="M4050 30 c0 -5 4 -10 9 -10 6 0 13 5 16 10 3 6 -1 10 -9 10 -9 0 -16
-4 -16 -10z"/>
<path d="M1125 20 c-3 -5 3 -10 14 -10 12 0 21 5 21 10 0 6 -6 10 -14 10 -8 0
-18 -4 -21 -10z"/>
<path d="M3420 20 c0 -13 27 -13 35 0 3 6 -3 10 -14 10 -12 0 -21 -4 -21 -10z"/>
<path d="M3490 20 c0 -5 7 -10 15 -10 8 0 15 5 15 10 0 6 -7 10 -15 10 -8 0
-15 -4 -15 -10z"/>
<path d="M4335 20 c3 -5 12 -7 20 -3 21 7 19 13 -6 13 -11 0 -18 -4 -14 -10z"/>
<path d="M4397 23 c-14 -13 -6 -23 18 -23 16 0 25 6 25 15 0 15 -31 21 -43 8z"/>
<path d="M4465 20 c-4 -6 5 -10 20 -10 15 0 24 4 20 10 -8 13 -32 13 -40 0z"/>
<path d="M1180 16 c0 -9 30 -14 35 -6 4 6 -3 10 -14 10 -12 0 -21 -2 -21 -4z"/>
<path d="M1250 10 c0 -5 4 -10 9 -10 6 0 13 5 16 10 3 6 -1 10 -9 10 -9 0 -16
-4 -16 -10z"/>
<path d="M4540 10 c0 -13 27 -13 35 0 3 6 -3 10 -14 10 -12 0 -21 -4 -21 -10z"/>
<path d="M1318 3 c7 -3 16 -2 19 1 4 3 -2 6 -13 5 -11 0 -14 -3 -6 -6z"/>
<path d="M1378 3 c7 -3 16 -2 19 1 4 3 -2 6 -13 5 -11 0 -14 -3 -6 -6z"/>
</g>
</svg>
